<svg width="110" height="43" viewBox="0 0 110 43" fill="none" xmlns="http://www.w3.org/2000/svg">
<path d="M75.4401 3.8021L75.4156 3.56642L75.0338 3.59907L75.0581 3.83454L75.4401 3.8021ZM78.0073 9.97631L78.0154 10.1063L78.2836 10.082C78.2754 10.0008 78.3078 9.87082 78.3648 9.70839L78.3403 9.47271C78.2266 9.48087 78.1128 9.65146 78.0073 9.97631ZM67.9901 17.7511C67.974 17.5317 67.2915 16.6788 65.9429 15.1758C65.9186 14.8997 66.3816 14.4852 67.3321 13.941L70.0456 11.5769C70.6549 10.805 71.0124 9.55392 71.1181 7.8154L71.0854 7.41729C70.9799 6.21502 70.1107 5.24822 68.4615 4.50894C67.4865 3.85087 65.7317 3.48521 63.197 3.42032C61.1009 3.59907 58.3632 4.3463 54.9916 5.67061C54.0654 6.33684 53.0095 7.00307 51.8233 7.66909L51.8394 7.87233C51.9127 7.86417 52.0263 7.82356 52.1563 7.73419C52.2945 7.71786 52.3757 7.78296 52.3838 7.91294L52.5869 7.80723L52.6844 7.79907L52.6926 7.88845C52.7007 7.99415 51.9694 8.57101 50.4908 9.60269L50.6047 9.81388L50.5072 9.82205L50.2633 9.73267C50.2715 9.80572 50.166 9.85449 49.9627 9.87082L49.9709 9.96019L50.2066 10.2526C50.1336 10.2608 50.0197 10.2283 49.8654 10.1714C49.524 10.2038 49.191 10.3826 48.858 10.7238L48.9962 10.1226C49.4916 7.98599 49.8328 6.09299 50.0115 4.45201L49.9872 4.3463C49.6461 4.12695 49.3128 3.81822 49.0041 3.42827C49.0123 3.17647 49.0123 3.03038 49.0041 2.99772L48.9798 2.90835L48.8823 2.93284C47.81 4.54138 45.7464 7.28731 42.6836 11.1706C40.3521 13.9329 39.1496 15.4684 39.0766 15.7771C38.1261 16.76 37.6711 17.3532 37.7198 17.5562C37.468 17.7187 37.3623 17.8811 37.4029 18.0598C37.3299 18.0762 37.2811 18.0519 37.2648 17.9786C36.8587 18.6367 36.2574 19.0591 35.4532 19.246L34.6082 19.4411C34.4946 19.4653 34.4377 19.5466 34.4458 19.6847L34.4701 19.7904L34.787 19.7171L34.8115 19.8065L34.0965 20.0828L32.8291 20.3752L32.1629 20.4158C32.0653 20.5134 32.691 20.4079 32.4473 20.4646L31.6187 20.6597C31.1149 20.7733 30.8388 20.7327 30.79 20.5297L30.6925 20.554C30.7088 20.6433 30.7168 20.7084 30.7006 20.7652L30.6519 20.5621L29.9856 20.7164C29.9369 20.4079 29.0352 19.2866 27.2885 17.3532C27.256 16.9794 27.8733 16.435 29.1327 15.7283L32.691 12.6004C33.4872 11.5769 33.9583 9.9357 34.1128 7.67725L34.064 7.14917C33.9259 5.55695 32.7722 4.27326 30.6031 3.28218C29.3194 2.41292 27.0122 1.94971 23.6815 1.87666C20.9192 2.11235 17.312 3.09526 12.8763 4.80951C11.6577 5.69488 10.2685 6.57231 8.70872 7.44157L8.733 7.71786C8.83871 7.7097 8.97663 7.65298 9.14722 7.55544C9.32597 7.53911 9.42351 7.62032 9.43984 7.78296L9.71591 7.62848L9.85406 7.62032L9.86222 7.7503C9.87039 7.88028 8.90359 8.63589 6.94571 10.0169L7.09997 10.2608L6.96204 10.2689L6.66125 10.1632C6.66942 10.2444 6.53127 10.3014 6.24703 10.3256L6.26315 10.472L6.58821 10.8295C6.48272 10.8376 6.33641 10.805 6.1495 10.7401C5.51592 10.797 4.89846 11.2518 4.28916 12.1131L4.44341 12.3568C4.9715 11.8693 5.28023 11.6257 5.36961 11.6175L5.40205 12.0156C5.31268 12.0238 5.17453 12.0805 4.98783 12.178L5.32084 12.6818C5.94993 12.0018 6.66241 11.404 7.44136 10.9025C7.82313 11 8.02616 11.1219 8.03433 11.2518L8.32673 11.2276C10.4228 9.67574 12.4945 8.55468 14.5499 7.86417L14.5742 8.14024C14.1924 8.70894 13.9325 9.00156 13.7943 9.01767C13.8106 9.21275 13.8755 9.38333 13.9973 9.52964C14.03 9.87898 13.0956 12.235 11.2026 16.5894C6.9051 26.7121 3.29786 34.2024 0.365234 39.0446C0.373184 39.1419 0.430117 39.2719 0.535821 39.4345C1.25877 39.2639 1.71381 39.0852 1.90868 38.9144L2.06315 38.8983L2.08743 39.1745L2.35555 39.1501L2.63184 38.9958C2.64001 39.077 2.72938 39.1176 2.91608 39.1013L2.94058 39.3776C2.96485 39.6457 2.8106 40.0518 2.48554 40.6125C2.19313 40.9455 1.87624 41.6442 1.54323 42.7085L1.55118 42.8385L1.8193 42.814C2.98935 41.506 3.87472 40.2223 4.48402 38.9713C7.89618 37.9721 10.496 36.9891 12.2994 36.0223C14.1112 35.8679 15.4922 35.3886 16.4347 34.6005L16.4184 34.4544L15.7361 34.6574L15.5816 34.6738L15.5653 34.5275C16.8977 34.3244 17.8158 34.0318 18.3275 33.6258C20.9192 31.6271 22.8771 30.2136 24.2014 29.3768C26.9228 27.3783 28.694 25.4284 29.4982 23.5356C29.6503 23.5024 29.802 23.4672 29.9532 23.4299C30.335 23.4138 30.5462 23.4056 30.6031 23.3893C30.5868 23.3162 30.6194 23.2756 30.6925 23.2593C31.3018 23.1944 31.0094 23.2999 31.3993 23.2105L32.4228 22.975C32.358 22.9912 32.3335 23.0238 32.3498 23.0887L32.5041 22.9912C32.4716 22.9912 32.4473 22.9832 32.4228 22.975L32.5934 22.9344L32.5122 22.9832C32.6261 22.9993 32.7479 22.9912 32.886 22.9587L32.9591 23.2593L28.3041 30.6605L27.2722 31.9521L26.7686 33.6419L26.8661 33.6176L27.3697 33.4064L27.2073 34.0645L27.256 34.2593L27.394 34.4299C27.3291 34.4462 27.3048 34.4869 27.3209 34.5599L27.3454 34.6656L27.5566 34.6168C27.8653 34.3487 27.9953 34.1051 27.9466 33.8857C28.2796 33.9424 28.4989 33.9669 28.6128 33.9345L28.6371 34.04C28.434 34.0887 28.3283 34.2512 28.312 34.5275L28.3365 34.6332L28.4501 34.6087C30.1401 32.7644 34.2834 26.4521 37.6062 22.1707C37.5005 21.7077 39.2308 21.0657 42.8054 20.2371L42.9193 20.2128C43.0493 20.7733 42.773 22.1301 42.0906 24.283C41.6519 25.5828 41.4407 26.2978 41.4732 26.4115C40.9045 28.1418 40.6363 29.0762 40.6688 29.2225L39.4014 33.3737C38.5809 35.5024 37.9555 37.7366 37.5168 40.0926C37.5899 40.0762 37.7035 40.0844 37.8661 40.125L38.0447 39.9705C38.061 40.0438 38.1098 40.0681 38.1828 40.0518L38.1098 39.7512L38.6621 39.7351C38.8246 39.6945 38.9627 39.4912 39.0766 39.1176C39.0521 38.5571 39.166 38.2565 39.4178 38.1914C39.7589 36.8592 39.9701 36.1929 40.0434 36.1684C40.3601 34.8444 40.5957 34.0887 40.75 33.9018C41.2295 32.1796 41.5787 31.294 41.8062 31.2371L41.8549 31.4485L41.5056 32.3502C40.8963 35.0555 40.2789 37.1922 39.6534 38.7601L39.8322 39.54L39.9458 39.5157C41.4568 36.266 43.6341 29.8318 46.4694 20.2128C46.5508 19.3678 46.9569 18.7097 47.68 18.2467L47.5174 18.0762L47.4931 17.9868C47.8182 17.9137 48.0455 17.7838 48.1755 17.605C48.1593 17.5317 47.8749 17.4263 47.3225 17.2799L48.7362 11.2194C49.0447 10.9431 49.2235 10.797 49.2804 10.797L49.3049 11.1057C49.2316 11.1137 49.118 11.1543 48.988 11.2437L49.2561 11.6257C49.7434 11.0976 50.2715 10.6425 50.8483 10.2608C51.1407 10.342 51.2871 10.4395 51.3034 10.537L51.5146 10.5207C53.1231 9.34273 54.6992 8.49775 56.2508 7.98599L56.2671 8.18901C55.9829 8.61956 55.7878 8.83892 55.6821 8.84708C55.6985 8.99339 55.7391 9.12337 55.8121 9.23703C55.8366 9.50515 55.1379 11.2924 53.7081 14.6071C50.4421 22.2843 47.7043 27.9631 45.4783 31.6515C45.4865 31.7246 45.5352 31.8221 45.6246 31.9521C46.1688 31.8221 46.5181 31.684 46.6563 31.554L46.7538 31.5458L46.7702 31.7491L46.9975 31.7328L47.2007 31.6271C47.2087 31.684 47.2819 31.7085 47.4201 31.7003L47.4362 31.9197C47.4525 32.1145 47.3389 32.4233 47.0868 32.8457C46.8514 33.0977 46.6075 33.6258 46.3476 34.4299L46.3557 34.5356L46.5669 34.5193C47.4525 33.5282 48.1267 32.5532 48.5899 31.5946C51.1814 30.8311 53.1556 30.0918 54.5205 29.3604C55.9096 29.2386 56.9577 28.8811 57.6727 28.28L57.6645 28.1745L57.1364 28.3288L57.0228 28.3369L57.0146 28.2312C58.022 28.0851 58.7288 27.8576 59.1106 27.557C61.0767 26.0458 62.5634 24.9654 63.5708 24.3318C66.7067 22.0489 68.1689 19.8553 67.9901 17.7511ZM67.4541 17.8892L67.5272 18.7097C67.4296 18.913 67.3241 19.0185 67.2266 19.0266L67.1048 17.6293C67.3321 17.7105 67.4459 17.7917 67.4541 17.8892ZM5.9383 11.2763L5.80016 11.2843L5.77588 11.0325L6.33641 10.9837L6.34457 11.1137C6.2552 11.1219 6.11705 11.1706 5.9383 11.2763ZM3.20054 38.6626C2.87548 38.5165 2.58308 38.4595 2.33128 38.4838L2.29862 38.0857C2.28251 37.9315 2.37188 37.8257 2.56675 37.7851C2.7455 37.769 2.8512 37.899 2.86731 38.159C3.33868 37.5821 3.59865 37.2897 3.64742 37.2816L3.94798 37.4034C3.85044 38.2159 3.59865 38.6301 3.20054 38.6626ZM32.4555 8.05903C32.3174 8.07536 32.0411 7.64481 31.643 6.79166L31.6187 6.53987C31.8786 6.51559 32.1468 6.93797 32.431 7.80723L32.4555 8.05903ZM32.0653 5.02886L31.9517 5.29699L27.979 3.63968C30.6274 3.72905 31.9923 4.19204 32.0653 5.02886ZM15.2892 19.4329L14.7287 19.4817L14.7042 19.2297L15.2647 19.1811L15.2892 19.4329ZM14.8342 10.7807L14.9723 10.7725L15.0047 11.1706C14.8748 11.1788 14.7042 11.3737 14.493 11.7475L14.4685 11.4712C14.7205 11.1706 14.8505 10.9431 14.8342 10.7807ZM13.6562 13.5591L13.7049 14.0871L13.5668 14.0953L13.518 13.5672L13.6562 13.5591ZM13.0387 14.5503L13.3068 14.5259C13.2825 14.9646 13.1607 15.2003 12.9414 15.2164L12.8032 15.2245C12.9738 14.9321 13.055 14.7046 13.0387 14.5503ZM12.5757 15.9314L12.73 15.915L12.7381 16.045L12.4863 16.4676L12.2182 16.4919L12.21 16.3619C12.4782 16.3376 12.6 16.1995 12.5757 15.9314ZM12.1207 17.1745L12.0395 17.8405L11.9013 17.8486L11.8446 17.1906L12.1207 17.1745ZM7.56317 30.1324C7.38442 31.0422 7.18934 31.5052 6.98631 31.5216L6.97815 31.3916C6.92938 30.9447 7.12446 30.5223 7.56317 30.1324ZM6.72635 31.944L6.73452 32.0739C6.75063 32.2527 6.66942 32.3584 6.49067 32.3663L6.48272 32.2364C6.46639 32.0821 6.5476 31.9846 6.72635 31.944ZM6.48272 35.7055L6.9051 35.6648L6.92122 35.8112C6.81573 35.8191 6.67758 35.876 6.507 35.9736L6.23887 35.9979C6.22254 35.8599 6.31192 35.7542 6.4825 35.7055H6.48272ZM18.5063 31.9927C16.134 33.1625 14.7366 33.9588 14.3224 34.373C11.7552 35.2667 10.4797 35.8191 10.504 36.0385C8.22124 36.9404 6.71819 37.6066 5.99524 38.0208C5.82465 38.0372 5.5808 37.9721 5.25596 37.8258C5.21535 37.3628 5.42654 36.9891 5.87321 36.6886C6.27131 36.6559 6.65309 36.7129 7.01876 36.8671C7.44136 36.6478 8.18064 36.4041 9.22865 36.1442L9.20415 35.8679L8.35939 35.9411C8.46488 35.7948 9.2772 35.413 10.8045 34.7956L11.2271 34.755L11.2353 34.885C10.5121 34.9498 10.114 35.1613 10.0246 35.543C10.041 35.7136 10.1385 35.7867 10.3173 35.7705C10.8615 35.4292 11.1296 35.2261 11.1214 35.1692C12.1533 34.9743 15.0047 33.4794 19.6761 30.6929L19.7006 30.9447C19.7088 31.0665 19.3107 31.4077 18.5063 31.9927ZM11.3408 34.3487C12.0233 34.2918 12.6082 34.0157 13.0956 33.5364C13.2905 33.5201 13.3962 33.5931 13.4044 33.7637C13.0711 33.7963 12.4294 34.0724 11.4953 34.6087L11.3571 34.6168L11.3408 34.3487ZM22.9014 25.469L19.3186 28.3045C16.6539 30.0512 15.2241 30.9284 15.0211 30.9447C10.7803 33.2764 8.14003 34.4869 7.1163 34.5762L6.96204 34.5923C7.09202 34.1132 8.97663 30.2542 12.6326 22.9912C14.2412 22.853 16.7759 22.1058 20.2287 20.7409L21.0735 20.6676C22.8201 20.5134 24.1281 20.8545 24.9894 21.6671L25.038 22.1949C24.3881 24.0637 23.6733 25.1523 22.9014 25.469ZM15.8985 21.5289L16.4754 21.4802L16.4833 21.6101L15.9067 21.6589L15.8985 21.5289ZM23.9981 20.1559L24.4207 20.1153C24.8107 20.3022 25.0137 20.4646 25.03 20.6109L25.038 20.7409C24.6644 20.7733 24.315 20.5785 23.9981 20.1559ZM25.1437 13.6323C24.7701 14.079 23.7463 14.8428 22.0727 15.915C21.5203 15.9638 19.4649 16.76 15.9067 18.3198C15.7288 18.2385 15.5328 18.205 15.338 18.2225L15.3135 17.9705C15.2729 17.4587 15.5004 16.817 16.004 16.0371C16.2803 14.5746 16.5808 13.7378 16.9141 13.5348L19.8794 6.86493C19.8467 6.45049 20.4805 6.1336 21.7803 5.91424L22.2027 5.87363L22.2353 6.25563C23.5107 6.06055 24.3069 5.9469 24.6156 5.9224C26.9716 5.71938 28.1983 6.19869 28.2959 7.34424L28.564 7.31975L28.5071 6.64557L28.7995 6.62108C29.49 7.00307 29.8638 7.46606 29.9126 8.01026C29.945 8.38409 29.742 8.84708 29.3112 9.39966C29.1327 9.41578 29.027 9.2858 29.0107 9.02583L28.7183 9.05033L28.6534 9.86265C27.4591 11.6499 26.5898 12.568 26.0536 12.6167C25.5661 13.2911 25.2655 13.6242 25.1437 13.6323ZM26.9634 18.3037C26.7198 18.141 26.5247 18.068 26.3786 18.0762L26.346 17.6781L26.6141 17.6538L27.2073 18.0031C27.2315 18.1898 27.1503 18.2874 26.9634 18.3037ZM28.8483 20.5376C29.1082 20.6433 29.2627 20.757 29.2951 20.8627L29.1652 20.8951L29.1733 20.9033C29.1488 20.9033 29.1164 20.9115 29.0919 20.9196L28.897 21.0739L28.8483 20.5376ZM29.027 21.6589L29.0027 21.5532L29.3439 21.472L29.3682 21.5777L29.027 21.6589ZM29.8475 22.5769C30.1968 22.52 30.3674 22.4957 31.0173 22.3494L31.0418 22.4551L29.8069 22.7394C29.8232 22.6824 29.8393 22.6257 29.8475 22.5769ZM31.05 23.0887C30.5301 23.1375 30.6437 23.0724 29.8151 23.2593L29.7906 23.1538L30.8225 22.8206L31.3181 22.7069L31.3667 22.9018C31.1473 22.9506 31.3099 22.9506 31.05 23.0887ZM32.1468 22.8287C32.0247 22.8612 31.9274 22.8045 31.8705 22.6663L32.1874 22.5931C32.3253 22.5606 32.4147 22.6175 32.4473 22.7557L32.1468 22.8287ZM35.12 19.6278L35.0957 19.5223L35.6075 19.4005L35.6562 19.5953L35.12 19.6278ZM38.2967 39.1094C38.3291 38.9631 38.3373 38.8576 38.321 38.7844L38.4348 38.7601C38.5728 38.7277 38.654 38.7764 38.6866 38.9064L38.7109 39.0119L38.2967 39.1094ZM40.5227 20.4646L40.2952 20.424C39.9295 20.5703 39.6208 20.6758 39.369 20.7327L39.1578 20.7815C39.036 20.8139 38.9384 20.7652 38.8897 20.6352L40.3764 20.294L40.8639 20.0665L41.0263 20.2534C40.7906 20.3022 40.62 20.3752 40.5227 20.4646ZM41.668 20.0989L41.6438 19.9934C41.7168 19.9771 41.8143 19.9204 41.92 19.8147L42.976 19.5711L43.0005 19.6765C42.44 19.8147 41.9931 19.9528 41.668 20.0989ZM41.8307 17.9623C41.7574 17.9786 41.6601 18.0437 41.5381 18.141C41.5219 18.068 41.3756 18.068 41.0993 18.1331C41.0508 17.9299 41.8307 17.6456 43.4474 17.2718L43.6747 17.223L43.7235 17.4181C42.5861 17.7511 41.9525 17.938 41.8307 17.9623ZM44.6741 14.8915C44.5603 16.1832 44.1054 16.9145 43.3011 17.1012L43.2768 16.9957L42.5618 17.2718L42.2449 17.345C42.0825 17.3857 41.9362 17.3775 41.8062 17.3369L41.7413 17.0524C41.7168 16.9469 42.7487 15.5169 44.8447 12.771L45.0884 12.8118C45.1777 13.1854 45.0396 13.8759 44.6741 14.8915ZM49.7028 10.5856L49.6055 10.5938L49.5891 10.3907L50.0115 10.3501L50.0197 10.4556C49.9466 10.472 49.8409 10.5126 49.7028 10.5856ZM47.6313 31.3916C47.3874 31.2777 47.1681 31.2292 46.9814 31.2453L46.9569 30.9365C46.9487 30.8311 47.0138 30.7578 47.1519 30.7172C47.2901 30.7011 47.3713 30.7984 47.3874 31.0098C47.7367 30.5629 47.9318 30.3354 47.9724 30.3354L48.1918 30.4248C48.1106 31.0422 47.9237 31.3671 47.6313 31.3916ZM69.8425 8.15657C69.7368 8.16474 69.5338 7.83968 69.2169 7.18161L69.2008 6.97858C69.4038 6.96225 69.615 7.27915 69.8262 7.92905L69.8425 8.15657ZM69.5501 5.83303L69.4526 6.04422L66.4467 4.78502C68.4534 4.85011 69.4932 5.19945 69.5501 5.83303ZM56.8034 16.7764L56.3808 16.817L56.3647 16.6137L56.7871 16.5813L56.8034 16.7764ZM56.4541 10.2038L56.5677 10.1957L56.592 10.5044C56.4865 10.5126 56.3565 10.6589 56.2021 10.9431L56.1859 10.7401C56.3729 10.5044 56.462 10.3256 56.4541 10.2038ZM55.5685 12.3162L55.6009 12.7143L55.4873 12.7224L55.4546 12.3243L55.5685 12.3162ZM55.0892 13.0718L55.3003 13.0555C55.2761 13.3966 55.1867 13.5754 55.0322 13.5917L54.9186 13.5997C55.0404 13.3724 55.0973 13.1936 55.0892 13.0718ZM54.748 14.1116L54.8455 14.1035L54.8535 14.209L54.6668 14.534L54.4554 14.5503L54.4474 14.4446C54.6668 14.4283 54.7641 14.3147 54.748 14.1116ZM54.4068 15.0539L54.3335 15.5739L54.236 15.582L54.1954 15.0703L54.4068 15.0539ZM50.9377 24.9084C50.7996 25.591 50.6535 25.9403 50.499 25.9564L50.4908 25.8671C50.4666 25.5259 50.6127 25.2011 50.9377 24.9084ZM50.296 26.2815L50.3039 26.3709C50.3203 26.517 50.2554 26.5984 50.1091 26.6063L50.1009 26.5009C50.0927 26.3952 50.1578 26.3221 50.296 26.2815ZM50.1172 29.1411L50.4421 29.1168L50.4502 29.2223C50.3772 29.2305 50.2633 29.2711 50.1333 29.3443L49.9221 29.3604C49.914 29.2468 49.9791 29.1737 50.1172 29.1411ZM59.2406 26.3221C57.4533 27.2077 56.389 27.8088 56.056 28.1176C54.106 28.7999 53.1394 29.2225 53.1556 29.3931C51.4252 30.0836 50.2878 30.579 49.7516 30.8959C49.6216 30.9041 49.4347 30.8553 49.191 30.7417C49.1586 30.3923 49.321 30.1079 49.6622 29.8967C49.9709 29.8724 50.2633 29.913 50.5314 30.0267C50.8565 29.8643 51.417 29.6855 52.2132 29.4825L52.1969 29.2792L51.5307 29.328C51.6121 29.2143 52.2375 28.9217 53.3994 28.4506L53.7243 28.4263L53.7324 28.5157C53.18 28.5644 52.8713 28.7269 52.8062 29.0193C52.8144 29.1493 52.8956 29.2143 53.0337 29.198C53.44 28.9299 53.6349 28.7756 53.6349 28.7269C54.4148 28.5887 56.5759 27.4513 60.1262 25.3229L60.1423 25.5259C60.1505 25.6153 59.8499 25.8752 59.2406 26.3221ZM53.7975 28.1094C54.3254 28.0606 54.7723 27.8576 55.1461 27.5001C55.284 27.4838 55.3655 27.5489 55.3734 27.6789C55.1298 27.7031 54.6504 27.9064 53.9273 28.2963L53.8136 28.3045L53.7975 28.1094ZM62.5877 21.3583L59.8823 23.5356C57.8594 24.8597 56.7628 25.5259 56.592 25.5422C53.3749 27.3132 51.3764 28.2312 50.5884 28.2963L50.4747 28.3045C50.5721 27.9388 52.0102 25.006 54.7886 19.4978C55.999 19.3923 57.9163 18.8154 60.5486 17.7756L61.2066 17.7187C62.5307 17.605 63.522 17.865 64.1719 18.4904L64.2044 18.8885C63.7087 20.2858 63.1727 21.1063 62.5877 21.3583ZM57.2746 18.3686L57.6969 18.328L57.7051 18.4337L57.2827 18.4743L57.2746 18.3686ZM63.4245 17.3206L63.7495 17.2963C64.0501 17.4424 64.2044 17.5726 64.2125 17.6781L64.2207 17.7674C63.9362 17.7917 63.6681 17.6456 63.4245 17.3206ZM64.2774 12.3731C63.9932 12.7143 63.2215 13.2991 61.9623 14.1116C61.5397 14.1522 59.9799 14.7534 57.2827 15.9232C57.1527 15.8744 57.0064 15.8583 56.852 15.8665L56.8358 15.6632C56.8034 15.2733 56.974 14.7858 57.3476 14.1928C57.5588 13.0718 57.7945 12.4462 58.0381 12.2998L60.3047 7.23038C60.2804 6.92981 60.7598 6.68618 61.7347 6.49926L62.0596 6.47498L62.0841 6.78372C63.0427 6.62924 63.6438 6.53987 63.8875 6.51559C65.6748 6.36112 66.6091 6.71862 66.6822 7.59604L66.8934 7.57971L66.8528 7.09223L67.0642 7.07612C67.5841 7.36036 67.8602 7.70175 67.8928 8.1078C67.9171 8.40042 67.7708 8.75771 67.4621 9.17214C67.3241 9.18826 67.2429 9.09093 67.2266 8.87974L67.0154 8.89585L66.9503 9.50515C66.0486 10.8782 65.3905 11.5851 64.9761 11.6175C64.6106 12.1131 64.3831 12.3649 64.2774 12.3731ZM65.2281 15.7526L65.2036 15.4439L65.4148 15.4278L65.8698 15.7038C65.878 15.8338 65.8129 15.9071 65.6748 15.9232C65.4799 15.8014 65.3336 15.7445 65.2281 15.7526ZM27.4103 35.4861L27.1991 35.5349L27.0204 35.6891C27.0528 35.8191 27.134 35.8679 27.2722 35.8354C27.4103 35.803 27.4672 35.7218 27.4348 35.5918L27.4103 35.4861ZM26.6061 33.8857L26.6304 33.9912C26.7686 33.9588 26.8253 33.8776 26.7928 33.7476L26.7686 33.6419C26.6386 33.6745 26.5816 33.7557 26.6061 33.8857ZM32.3253 20.2777L32.5691 20.221L32.5204 20.0098L32.2767 20.0665L32.3253 20.2777ZM106.044 26.4684C103.574 27.0208 103.265 26.9232 102.745 26.9639L102.761 27.1671L102.989 27.1508L103.111 27.1426L103.078 27.1183L103.346 27.0126C105.792 26.7445 106.076 26.842 106.052 26.5657L106.044 26.4684ZM92.7443 28.2312L92.7607 28.4345H92.7931L92.777 28.2312H92.7443ZM91.217 22.8775L90.9976 22.8045C90.8189 23.2838 90.7295 23.568 90.7377 23.6492L90.7458 23.7386C90.9164 23.7304 91.0709 23.438 91.217 22.8775ZM106.547 26.4278L106.564 26.6308L106.921 26.6957L106.905 26.4927L106.547 26.4278ZM89.7384 28.483L89.1861 28.4181L89.0885 28.6293L89.0967 28.735L92.3868 28.4587L92.3707 28.2557L89.7384 28.483ZM88.2435 21.2771L88.2356 21.1714L88.1217 21.1796L87.9187 21.3096L88.0324 21.5044C88.1868 21.4883 88.2599 21.4151 88.2435 21.2771ZM108.107 24.9329L108.261 24.9166C108.351 24.9084 108.391 24.8354 108.383 24.7054L108.294 24.5103C107.733 24.5591 107.473 24.5836 107.018 24.8354L107.01 24.7299L106.336 24.7948C106.32 24.5918 106.263 24.486 106.174 24.4942L105.824 24.5267C105.418 24.5591 105.223 24.543 105.02 24.6972C105.012 24.6242 104.987 24.5918 104.947 24.5918L104.557 24.6242L104.329 24.7542C104.321 24.6811 104.297 24.6485 104.256 24.6485L104.118 24.7705L104.11 24.6648L103.566 24.6242L103.436 24.6324L103.452 24.8354L103.728 24.9084L103.988 24.8923C104.078 24.9493 104.175 24.9654 104.289 24.9572L104.516 24.8436L104.524 24.9329C103.249 25.2498 103.257 25.1929 102.379 25.3392C102.282 25.2741 102.209 25.2417 102.16 25.2498L102.144 25.2659C102.046 25.2578 101.99 25.1929 101.982 25.0872L102.436 25.0305C102.469 25.0305 102.493 25.0629 102.745 25.1117C103.111 24.9329 103.127 24.8597 103.322 24.8436L103.306 24.6403C102.055 24.8842 102.558 24.7217 100.99 24.8597L100.917 24.8678L100.901 24.6648C102.916 24.4212 102.242 24.5591 102.932 24.3642C102.94 24.4373 102.964 24.4697 103.005 24.4697C103.079 24.3941 103.176 24.3455 103.281 24.3318L103.42 24.3236C104.126 24.2667 104.362 24.4048 105.759 24.0149L105.767 24.1043L105.995 23.9904L106.206 23.9743C106.19 23.771 106.498 23.7386 106.604 23.7304L106.588 23.5111C104.134 24.0067 103.493 23.8686 102.81 24.0637L102.802 23.9743C102.16 24.0879 102.136 24.0392 101.973 24.0473C101.925 24.0555 101.852 24.0961 101.77 24.1773C101.762 24.1043 101.738 24.0716 101.689 24.0716C101.665 24.0716 101.657 24.0798 101.648 24.0798L99.5686 24.421C99.5605 24.3642 99.5362 24.3318 99.4874 24.3397C98.407 24.5673 98.6994 24.6079 97.2533 24.7378C97.1882 24.746 97.099 24.7785 96.9851 24.8517C96.977 24.7948 96.9445 24.7623 96.8715 24.7703L95.9859 24.8436L95.3929 24.9896C95.3848 24.9329 95.3523 24.9005 95.2791 24.9084C94.9461 24.9978 94.6536 25.0547 94.418 25.0711H94.4016C94.2555 25.0872 94.4749 25.0305 94.361 24.9817L94.1823 25.0872C93.9223 25.1117 94.0605 25.0711 93.1669 25.079C91.599 25.2741 91.7696 25.2984 91.599 25.3065L91.014 25.2659C91.0221 25.3229 90.9897 25.3635 90.9246 25.3635C90.2584 25.2741 89.9172 25.1684 89.909 25.0466C89.9984 24.413 90.1529 24.0879 90.3722 24.0716L90.4859 24.0637L90.3883 24.2749L90.5022 24.2667C90.7134 24.153 90.8109 24.0473 90.8028 23.9498L90.7864 23.7304L90.5753 23.7468L90.5589 23.5437C90.5428 23.3893 90.5671 23.2511 90.624 23.1375L91.1033 22.3657L91.1197 22.5688L91.347 22.5524L91.3309 22.3494L91.2009 22.1625C91.3715 22.0164 91.5014 21.935 91.6069 21.927L91.599 21.8213L91.2903 21.8458L91.2658 21.5371C91.8832 20.2534 92.1756 19.506 92.1595 19.2948L92.3789 19.3841C92.517 19.376 92.5819 19.2948 92.5737 19.1485L92.3625 19.1648L92.3544 19.0754C92.3395 18.9271 92.3677 18.7776 92.4356 18.6449C92.7688 18.2955 92.9231 17.9462 92.8906 17.5805C92.9557 17.5724 92.9882 17.605 92.9963 17.6781C93.2806 17.5156 93.4999 17.0851 93.6624 16.3701C94.1662 15.4602 94.881 13.6405 95.8153 10.9188C97.6026 6.10932 97.5296 5.59756 97.7814 4.46017L97.5702 4.47628C97.5863 4.62259 97.5538 4.76074 97.489 4.89072C97.3426 4.83379 97.229 4.80134 97.1478 4.80951L97.1396 4.72013C97.107 4.3057 97.2778 3.81027 97.6677 3.22524L97.765 3.21708L97.9438 3.91576L98.155 3.89964C98.147 3.85087 98.2037 3.57458 98.3176 3.06282C98.3094 2.95712 98.2282 2.89224 98.0656 2.88407L97.8626 3.01405C97.8465 2.86774 97.8544 2.48596 97.8789 1.87666L97.7732 1.88483C97.5944 1.70608 97.5051 1.55977 97.4969 1.43795L96.3352 1.55161C96.3271 1.47039 96.2865 1.34858 96.2053 1.19432C96.1971 1.08861 96.4571 0.982911 96.9933 0.877423L97.229 0.966798L97.4483 0.836817C97.4563 0.909864 97.4969 0.942306 97.5781 0.934357L97.7975 0.804376C97.8056 0.877423 97.8462 0.909864 97.9277 0.9017L98.0331 0.893751L98.0168 0.658066C97.8544 0.674395 97.4239 0.674395 96.7415 0.649902L96.5221 0.796212L96.514 0.666231C91.0627 1.11289 87.9675 1.36491 87.2282 1.43795C87.1306 1.44612 86.7489 1.43795 86.0745 1.42162C86.0826 1.511 86.0014 1.55977 85.839 1.5761L85.6033 1.47039L84.8071 1.67364C84.6202 1.68975 84.3035 1.68159 83.8648 1.63303C83.743 1.73036 83.5967 1.78729 83.4179 1.80362C83.3204 1.81157 84.5796 1.73852 85.7494 1.65731C85.6276 1.75485 85.4409 1.81157 85.1809 1.83606C85.0022 1.85239 84.8477 1.8279 84.7177 1.75485C84.539 1.83606 83.9623 1.96604 82.9955 2.1609L82.7598 2.07174L78.9577 2.65655C78.8114 2.5835 78.6409 2.55901 78.446 2.57534C78.2427 2.59167 77.9016 2.66471 77.4304 2.7947L75.5944 3.55825L75.7325 3.78577C75.8219 3.77761 75.9519 3.72905 76.1061 3.63968L76.7562 3.6964L76.6748 4.3057C76.0737 4.57382 75.7243 4.97193 75.6268 5.47574C74.7251 5.87363 74.2782 6.15809 74.2782 6.32867L74.2864 6.43438L74.4245 6.42621L74.6682 6.29623L74.9526 6.63741L74.9932 7.10856C75.0093 7.25487 73.4902 10.4477 70.4518 16.687C67.8196 22.6988 66.4385 25.9891 66.3086 26.5821C65.4069 26.8339 64.8867 27.1995 64.7325 27.687C64.7488 27.8413 65.0167 27.947 65.5366 27.9876L65.5611 28.2231L65.3254 28.613L65.366 29.0844C65.3905 29.328 66.0486 29.5149 67.3402 29.6449C67.3321 29.5637 67.3729 29.5149 67.4621 29.5068C67.4866 29.7992 67.4053 30.3679 67.2184 31.2128L67.3566 31.2047C67.8926 30.4736 68.1446 29.9697 68.1201 29.6937L68.234 29.6855C68.364 29.6773 68.5021 29.8237 68.6645 30.1403C68.5021 30.2054 67.9334 31.4971 66.9585 34.0239L67.0966 34.2512L67.2347 34.2432C68.4289 31.221 69.1763 29.5474 69.485 29.2305C71.053 29.0923 73.7665 28.8162 77.6173 28.4018L77.861 28.2557C77.8691 28.3369 77.9179 28.3775 78.0073 28.3694L78.2591 28.3451L78.5029 28.1988C78.5109 28.28 78.5596 28.3206 78.649 28.3124L81.5655 28.0606C82.3375 27.9957 82.7029 27.7601 82.6705 27.362C82.6623 27.2565 83.1174 27.1344 84.0354 27.0045C84.1248 26.9963 84.2547 27.0208 84.4335 27.0777C84.4253 27.0045 84.8883 26.9314 85.8145 26.8502C85.839 26.3627 85.9933 26.1028 86.2696 26.0785L86.2451 25.8428C85.9851 25.8671 85.6927 25.9322 85.3515 26.0458C84.7422 26.0134 84.3523 25.9646 84.1896 25.9077C84.0272 25.9971 83.9054 26.0458 83.816 26.054L81.7849 26.1191L81.5413 26.2491C81.5331 26.1758 81.4843 26.1434 81.3949 26.1515L81.2813 26.1597L81.0213 26.2897C81.0132 26.2164 80.802 26.1597 80.3794 26.1028L80.1196 26.257L79.6158 26.2976L79.6077 26.1676C82.2236 25.8834 83.5155 25.5259 83.4828 25.1035C83.6536 25.0872 83.743 25.1684 83.7591 25.3392L84.5229 25.1441L84.4984 24.9084L78.2348 25.079C78.2427 25.1604 78.2021 25.209 78.113 25.2172L77.3492 25.1523C77.1541 25.1684 76.9917 25.2253 76.8617 25.3229L76.5775 25.2172C75.7894 25.2823 75.2044 25.3798 74.8145 25.5016C74.2782 25.461 73.6852 25.469 73.0272 25.5259L71.6217 25.6477L70.9718 25.5747C70.9393 25.1604 71.7435 23.1211 73.4008 19.4653C73.8803 18.2304 74.3188 17.4587 74.7414 17.1663C74.8308 17.1581 74.9608 17.1906 75.1395 17.2636L76.1388 16.9224L76.6505 17.0037C77.5116 16.9306 78.5109 16.687 79.6564 16.2644C79.9409 16.2401 80.1521 16.2564 80.3063 16.3213L81.0701 16.1426L83.3449 15.9477C84.3115 15.8665 85.3595 15.6551 86.4969 15.3057L86.4726 15.0703C86.0502 15.1109 85.8308 15.0378 85.8145 14.867C85.7902 14.5503 85.4815 14.4204 84.8883 14.4689L84.864 14.2335L85.4897 14.0547L87.1306 13.9166L87.1062 13.6811C87.0413 13.689 86.7083 13.6811 86.0908 13.6566L86.0663 13.4048L86.7001 13.3479C86.8707 13.3317 86.9437 13.2503 86.9276 13.0879C86.0745 13.1124 85.6439 13.0718 85.6358 12.9579C79.6889 13.2503 76.7075 13.3073 76.6911 13.1203C76.6018 13.1285 76.4799 13.1854 76.3175 13.283L76.163 13.0391C77.7392 9.69207 78.6653 8.00231 78.9335 7.97782C78.9414 8.1078 78.8765 8.31899 78.7302 8.60345L78.7384 8.70894L78.9902 8.68466C79.6158 7.18977 80.1439 6.41805 80.5826 6.38561C82.4511 6.22297 80.3227 6.10115 84.3196 5.47574C84.4823 5.54879 84.5959 5.58123 84.6771 5.57307C86.2451 5.25639 88.4305 4.92316 91.2333 4.58199L91.217 4.3463L89.7221 4.48445L89.706 4.24898C89.8847 4.23265 90.0308 4.17572 90.1529 4.07839L90.1608 4.20837C90.2422 4.20021 90.3559 4.14328 90.5022 4.04574C90.7622 4.02146 90.957 4.04574 91.0952 4.119C91.6151 3.98085 92.0375 3.89964 92.3462 3.86699L93.2806 3.77761C93.5081 3.63152 93.6136 3.50153 93.6056 3.37972L93.5975 3.27401C93.3618 3.29829 93.0937 3.28218 92.777 3.22524C92.7688 3.09526 92.8337 3.00589 92.9882 2.96528L94.7267 2.80286L95.5229 2.59962C95.5309 2.68899 95.5717 2.72165 95.6366 2.72165C95.7178 2.71348 95.8316 2.65655 95.9777 2.55901C96.0183 2.56718 96.0671 2.56718 96.1077 2.57534C96.0022 2.7947 95.8802 3.11159 95.7584 3.52581L95.5309 3.54214C95.5147 3.38767 95.4741 3.24974 95.4009 3.1277L95.2872 3.13587C93.1749 9.01767 92.2326 11.7556 90.2829 16.2725C89.9254 17.4263 89.6248 18.068 89.3648 18.2061C89.373 18.3361 89.4542 18.401 89.5923 18.3849C89.6409 18.9536 89.5109 19.5141 89.1942 20.0665C88.2923 22.6663 87.6912 24.0879 87.3825 24.3479L87.5855 25.5747C87.5936 25.7046 87.5288 25.7777 87.3906 25.794L87.1794 25.8104C87.1468 25.469 87.0249 25.3065 86.8056 25.331L86.6919 25.3392C86.4156 25.7697 86.2045 26.2652 86.0663 26.842L86.2775 26.8257C86.562 26.639 86.6919 26.4196 86.6674 26.1676L87.09 26.127L87.3337 26.2164C87.1388 26.5251 87.0494 26.769 87.0656 26.9557L87.1794 27.1508L86.9031 27.8007L86.9113 27.9064C87.1549 27.8819 87.4231 27.9631 87.7075 28.1337C87.9024 28.1176 88.1136 28.0282 88.3493 27.8737C88.5929 27.8494 89.5028 27.8413 91.0709 27.8413L91.8587 27.5732C92.8176 27.565 92.9718 27.5895 93.8005 27.5164L94.1417 27.4838L94.3204 27.362L94.3286 27.4677C95.1979 27.3944 95.2548 27.4513 95.9371 27.5325L95.9453 27.6383L95.466 27.6789L95.4821 27.8819C95.6284 27.8658 95.7584 27.8249 95.8641 27.7358C95.9859 27.7276 96.0589 27.7925 96.0671 27.9388C95.8722 27.9551 95.6529 28.0037 95.409 28.0851L95.1978 28.0119C94.8648 28.1012 94.9379 28.1257 94.7104 28.1418L94.3774 28.077C94.3855 28.1337 94.3529 28.1743 94.2962 28.1743C94.3041 28.3045 94.3774 28.3694 94.4992 28.3612L94.8403 28.3288L96.6195 28.1743L97.2939 28.0282C97.302 28.0851 97.3263 28.1176 97.3832 28.1094L97.7081 27.9876L98.3176 27.9388C98.7888 27.8982 98.7806 27.8658 99.8041 27.7031C99.7962 27.6383 99.8204 27.6138 99.8692 27.6058L99.8774 27.695C101.543 27.4107 101.648 27.3944 101.916 27.305L101.941 27.3538C102.355 27.2565 102.119 27.2807 102.233 27.1995C102.242 27.2726 102.266 27.305 102.306 27.305L102.599 27.2807L102.583 27.0614L101.99 27.0532L101.982 27.0371C101.957 27.0451 101.941 27.0451 101.916 27.0532H101.835V27.0696C101.437 27.1508 101.429 27.0938 101.169 27.1183L99.6823 27.1995L99.6741 27.0938L100.503 26.9802L100.803 26.9557L100.974 26.8339L100.982 26.9396C102.152 26.842 102.566 27.1344 107.977 25.9809C108.269 25.9564 108.245 25.7128 108.432 25.209C108.333 25.2158 108.234 25.1932 108.148 25.1441C107.701 25.3147 107.465 25.2335 106.604 25.3716C106.531 25.3798 106.474 25.3147 106.45 25.1847L106.442 25.0953L107.27 25.1196C107.425 25.1035 107.725 25.079 108.172 24.8272C108.172 24.9005 108.009 24.9411 108.107 24.9329ZM68.104 25.5747L67.722 25.6071C67.7059 25.4529 67.9089 24.8678 68.3313 23.8686L68.5833 23.8443C68.5915 24.0798 68.437 24.6566 68.104 25.5747ZM68.567 23.7225L68.5588 23.6168C68.5507 23.4868 68.6321 23.3974 68.8109 23.3568L68.8188 23.4623C68.827 23.6168 68.7458 23.7062 68.567 23.7225ZM73.6446 27.6464L73.6528 27.7519L73.019 27.8088L73.0108 27.7031L73.6446 27.6464ZM72.8809 27.5813C72.889 27.7113 72.6942 27.8576 72.2716 28.0037L71.4917 27.947L71.2399 27.9713L71.2156 27.7358L72.8809 27.5813ZM78.0154 3.94841L77.6334 3.98085L77.6255 3.85087C77.6173 3.72089 77.6904 3.63152 77.8528 3.59091L77.9909 3.58275L78.2509 3.68823C78.2591 3.84271 78.186 3.93208 78.0154 3.94841ZM83.8242 2.81102L83.946 2.80286L83.9621 3.03833L83.6128 3.07099C83.6048 2.941 83.6697 2.85163 83.8242 2.81102ZM82.3617 3.32278L81.7849 3.25769L81.7767 3.1522C82.5323 3.0871 82.7841 3.00589 83.2473 2.87591C83.2555 2.96528 83.3367 2.99772 83.4828 2.98161L83.4991 3.21708L83.2716 3.24157C83.0929 3.25769 82.9386 3.23341 82.8086 3.16036C82.6705 3.24974 82.5242 3.30646 82.3617 3.32278ZM83.0849 5.42697L83.0767 5.32127L84.0109 5.23189L84.0191 5.3376L83.0849 5.42697ZM84.0842 4.61443L84.076 4.48445L84.5308 4.44384L84.539 4.57382L84.0842 4.61443ZM84.1896 3.02222L84.0678 3.03038L84.1735 2.77837L85.2134 2.68104L85.2215 2.81102C84.9534 2.8353 84.6041 2.90835 84.1896 3.02222ZM84.7177 5.26433L84.7014 5.02886L85.1564 4.98826C85.3109 4.97193 85.3921 5.04498 85.4003 5.20762L84.7177 5.26433ZM87.4718 1.511L86.8868 1.67364L86.7813 1.68159C86.505 1.70608 86.1475 1.69791 85.7251 1.65731C86.4807 1.60854 87.2037 1.55161 87.4718 1.511ZM86.8462 4.11083L86.8544 4.21632L86.0502 4.28958L86.042 4.18388L86.8462 4.11083ZM88.1623 4.73625C88.1542 4.63892 87.9999 4.57382 87.683 4.54138L86.8789 4.7689L86.2614 4.79318C86.1232 4.69564 86.0502 4.63076 86.042 4.58199L86.757 4.62259L88.3656 4.36263L89.1861 4.39507L89.1942 4.52505C88.788 4.56566 88.4468 4.63892 88.1623 4.73625ZM96.4409 2.59962C96.5383 2.60778 96.6034 2.60778 96.6276 2.60778C96.9121 2.33171 97.229 2.11235 97.5944 1.95788C97.302 3.24157 96.847 4.19204 96.2216 4.80951L95.7665 4.53322C96.1483 3.56642 96.3758 2.92468 96.4409 2.59962ZM95.0436 4.99642L95.1572 4.98826C95.0028 5.28066 94.8648 5.43492 94.751 5.44308L94.7267 5.13435C94.7997 5.13435 94.9054 5.08558 95.0436 4.99642ZM94.1417 7.14917C94.361 6.27174 94.5722 5.77631 94.7673 5.64633L94.7755 5.75182C94.6616 6.56436 94.4828 6.99491 94.2474 7.02735L94.288 7.53911C94.0929 7.8154 94.0035 8.02659 94.0117 8.18901L93.898 8.19718L93.8329 7.49034C93.9629 7.47423 94.0686 7.36036 94.1417 7.14917ZM93.7923 8.31899C93.8005 8.44103 93.7193 8.72527 93.5569 9.16398L93.443 9.17214L93.4187 8.86341C93.573 8.50591 93.703 8.32716 93.7923 8.31899ZM87.2364 27.3456L87.2282 27.2565L87.4394 27.2401L87.4637 27.5489C87.35 27.557 87.2688 27.4919 87.2364 27.3456ZM96.6034 27.5895C96.5952 27.5164 96.5628 27.4838 96.4897 27.4919L95.9616 27.5407L95.9535 27.435H96.0022L97.2533 27.3295L97.2614 27.435C96.8958 27.4513 96.6764 27.5083 96.6034 27.5895ZM95.9777 27.3295C96.0265 27.3538 96.0022 27.3783 95.9777 27.3944C95.9535 27.3865 95.921 27.362 95.9777 27.3295ZM96.0428 25.8671L95.3442 25.924L95.336 25.8183L95.9696 25.7616L96.5221 25.6234C96.5303 25.6883 96.5628 25.7128 96.6358 25.7046C97.2939 25.591 97.229 25.5586 97.5457 25.5341C97.6514 25.5259 97.7165 25.591 97.7244 25.721L96.0428 25.8671ZM98.4882 25.6559C98.0983 25.6153 98.0738 25.5828 97.7977 25.6071L97.7895 25.5177L98.4149 25.461L98.4231 25.5504C98.3582 25.5586 98.5937 25.5747 98.4882 25.6559ZM98.537 25.5422L98.5288 25.4529L98.87 25.4204L98.8781 25.5098L98.537 25.5422ZM99.2924 25.4771L99.2844 25.3878C99.3411 25.3798 99.4223 25.3392 99.528 25.2578C99.6986 25.2417 99.788 25.3553 99.8043 25.4853L99.2924 25.4771ZM100.259 25.3553L100.251 25.2498L100.665 25.2172L100.674 25.3229L100.259 25.3553ZM100.836 25.3065C100.828 25.1847 100.877 25.1117 100.982 25.0953L101.12 25.2741C101.112 25.2172 101.137 25.1847 101.185 25.1766L101.291 25.3716L100.836 25.3065ZM94.7024 27.9551L94.6861 27.7519L94.621 27.7601L94.6373 27.9631L94.7024 27.9551ZM108.976 24.2585C109.041 24.2179 109.074 24.1773 108.92 24.153C108.846 24.2343 109.001 24.2585 108.838 24.2667L108.846 24.3397C108.863 24.3236 108.903 24.2991 108.936 24.2749L108.846 24.3479V24.3561L108.676 24.5754L109.017 24.4536H109.058L109.041 24.2504L108.976 24.2585ZM109.569 24.7217L109.504 24.7299L109.521 24.9329L110 24.8923C109.992 24.7623 109.675 24.7217 109.569 24.7217ZM108.83 24.3642L108.838 24.3561V24.3479C108.838 24.3479 108.83 24.3561 108.83 24.3642Z" fill="black"/>
<path d="M77.642 9.3264L77.6502 9.45638L77.9183 9.43211C77.9102 9.3509 77.9426 9.22091 77.9995 9.05828L77.9753 8.82281C77.8614 8.83097 77.7477 9.00156 77.642 9.3264ZM75.0749 3.1522L75.0506 2.91652L74.6686 2.94896L74.6931 3.18464L75.0749 3.1522ZM67.6251 17.1012C67.6088 16.8818 66.9265 16.0289 65.5779 14.5259C65.5534 14.2498 66.0166 13.8353 66.9671 13.2911L69.6805 10.927C70.2898 10.1551 70.6471 8.90402 70.7528 7.1655L70.7204 6.76739C70.6147 5.5649 69.7454 4.59832 68.0963 3.85904C67.1213 3.20097 65.3665 2.8353 62.8319 2.77021C60.7359 2.94896 57.9979 3.6964 54.6266 5.0207C53.7004 5.68694 52.6442 6.35295 51.4581 7.01919L51.4744 7.22243C51.5474 7.21427 51.6611 7.17366 51.7913 7.08429C51.9292 7.06796 52.0107 7.13306 52.0186 7.26304L52.2218 7.15733L52.3192 7.14917L52.3273 7.23854C52.3355 7.34425 51.6044 7.92089 50.1258 8.95279L50.2395 9.16398L50.1419 9.17214L49.8983 9.08277C49.9065 9.15582 49.8008 9.20459 49.5977 9.22091L49.6059 9.31029L49.8414 9.60269C49.7683 9.61086 49.6547 9.57842 49.5002 9.52148C49.159 9.55392 48.8258 9.73267 48.4928 10.0738L48.6309 9.47271C49.1266 7.33608 49.4678 5.44309 49.6465 3.8021L49.622 3.6964C49.2808 3.47704 48.9478 3.16831 48.6391 2.77837C48.6473 2.52657 48.6473 2.38026 48.6391 2.34782L48.6146 2.25845L48.5173 2.28294C47.4448 3.89148 45.3812 6.63741 42.3186 10.5207C39.9869 13.283 38.7844 14.8183 38.7113 15.127C37.7609 16.1101 37.3058 16.7031 37.3546 16.9063C37.1028 17.0688 36.9971 17.2312 37.0379 17.4099C36.9647 17.4263 36.9159 17.4018 36.8998 17.3287C36.4935 17.9868 35.8924 18.4092 35.088 18.5961L34.243 18.791C34.1293 18.8154 34.0724 18.8967 34.0806 19.0348L34.1051 19.1403L34.4218 19.0672L34.4462 19.1566L33.7312 19.4329L32.4639 19.7253L31.7979 19.7659C31.7003 19.8635 32.3257 19.7578 32.0821 19.8147L31.2534 20.0098C30.7498 20.1234 30.4736 20.0828 30.4248 19.8798L30.3272 19.9041C30.3436 19.9934 30.3517 20.0583 30.3354 20.1153L30.2866 19.9122L29.6204 20.0665C29.5719 19.7578 28.6699 18.6367 26.9233 16.7031C26.8908 16.3295 27.5083 15.7851 28.7675 15.0784L32.3257 11.9505C33.1219 10.927 33.5931 9.2858 33.7476 7.02735L33.6988 6.49926C33.5607 4.90705 32.4072 3.62335 30.2379 2.63228C28.9544 1.76301 26.6472 1.29981 23.3162 1.22676C20.554 1.46223 16.9469 2.44536 12.511 4.15961C11.2924 5.04498 9.90326 5.92241 8.34349 6.79167L8.36777 7.06796C8.47347 7.05979 8.61162 7.00307 8.7822 6.90553C8.96095 6.88921 9.05849 6.97042 9.0746 7.13306L9.35089 6.97858L9.48904 6.97042L9.49699 7.1004C9.50515 7.23038 8.53835 7.98599 6.58047 9.36701L6.73495 9.61086L6.5968 9.61902L6.29624 9.51332C6.3044 9.59453 6.16625 9.65146 5.8818 9.67574L5.89813 9.82205L6.22297 10.1796C6.11748 10.1877 5.97118 10.1551 5.78448 10.0902C5.15068 10.1469 4.53322 10.6019 3.92392 11.463L4.07839 11.7069C4.60648 11.2194 4.915 10.9758 5.00437 10.9676L5.03703 11.3657C4.94766 11.3737 4.80951 11.4306 4.6226 11.5281L4.95582 12.0317C5.58494 11.3519 6.29734 10.7541 7.07612 10.2526C7.4579 10.3501 7.66114 10.472 7.66909 10.6019L7.96171 10.5777C10.0577 9.02584 12.1293 7.90478 14.1847 7.21427L14.2092 7.49034C13.8272 8.05904 13.5672 8.35165 13.4291 8.36777C13.4454 8.56285 13.5105 8.73343 13.6323 8.87974C13.6648 9.22908 12.7304 11.5851 10.8376 15.9395C6.53987 26.0622 2.93284 33.5525 0 38.3944C0.00816409 38.492 0.0650979 38.622 0.170587 38.7844C0.893753 38.6138 1.34858 38.4353 1.54366 38.2645L1.69792 38.2484L1.72241 38.5244L1.99032 38.5001L2.26661 38.3459C2.27477 38.4271 2.36415 38.4677 2.55106 38.4514L2.57534 38.7277C2.59962 38.9958 2.44536 39.4019 2.1203 39.9624C1.8279 40.2956 1.511 40.9943 1.17799 42.0586L1.18616 42.1884L1.45428 42.1641C2.62411 40.8561 3.5097 39.5724 4.119 38.3214C7.53116 37.3222 10.1308 36.339 11.9344 35.3724C13.746 35.218 15.127 34.7387 16.0695 33.9506L16.0532 33.8045L15.3708 34.0075L15.2164 34.0239L15.2003 33.8776C16.5325 33.6745 17.4505 33.3819 17.9625 32.9758C20.554 30.9772 22.5118 29.5637 23.8361 28.7269C26.5578 26.7284 28.3288 24.7785 29.1331 22.8857C29.2792 22.853 29.4255 22.8206 29.588 22.78C29.9697 22.7639 30.1812 22.7557 30.2379 22.7394C30.2218 22.6663 30.2542 22.6257 30.3272 22.6094C30.9365 22.5445 30.6441 22.65 31.0341 22.5606L32.0578 22.3251L32.2284 22.2843L32.1472 22.3331C32.2608 22.3494 32.3827 22.3413 32.5208 22.3088L32.5939 22.6094L27.9388 30.0104L26.9071 31.3022L26.4033 32.992L26.5009 32.9677L27.0045 32.7565L26.842 33.4146L26.8908 33.6094L27.029 33.78C26.9639 33.7963 26.9396 33.8369 26.9557 33.91L26.9802 34.0157L27.1914 33.9669C27.5001 33.6988 27.6301 33.4552 27.5813 33.2358C27.9143 33.2925 28.1337 33.317 28.2476 33.2846L28.2718 33.3901C28.0688 33.4388 27.9631 33.6013 27.947 33.8776L27.9713 33.983L28.0851 33.9588C29.7749 32.1145 33.9182 25.8022 37.2409 21.5208C37.1352 21.0578 38.8658 20.4158 42.4404 19.5872L42.5541 19.5629C42.684 20.1234 42.408 21.4802 41.7254 23.6331C41.2867 24.9329 41.0755 25.6477 41.1079 25.7616C40.5392 27.4919 40.2711 28.4263 40.3038 28.5724L39.0364 32.7238C38.2157 34.8525 37.5903 37.0865 37.1516 39.4425C37.2246 39.4263 37.3385 39.4345 37.5009 39.4751L37.6797 39.3206C37.6958 39.3939 37.7445 39.4182 37.8178 39.4019L37.7445 39.1013L38.2971 39.0852C38.4595 39.0446 38.5977 38.8413 38.7113 38.4677C38.6871 37.9072 38.8007 37.6066 39.0525 37.5415C39.3937 36.2093 39.6051 35.543 39.6781 35.5185C39.995 34.1945 40.2305 33.4388 40.385 33.2519C40.8643 31.5297 41.2136 30.6441 41.4412 30.5872L41.4899 30.7984L41.1406 31.7003C40.5311 34.4056 39.9138 36.5423 39.2882 38.1102L39.4669 38.8901L39.5806 38.8658C41.0918 35.6161 43.2691 29.1817 46.1044 19.5629C46.1856 18.7179 46.5918 18.0598 47.3148 17.5968L47.1524 17.4263L47.1279 17.3369C47.4529 17.2636 47.6805 17.1339 47.8104 16.9551C47.7941 16.8818 47.5099 16.7764 46.9573 16.63L48.371 10.5695C48.6797 10.2932 48.8585 10.1471 48.9152 10.1471L48.9397 10.4556C48.8666 10.4638 48.7527 10.5044 48.6228 10.5938L48.8909 10.9758C49.3784 10.4477 49.9065 9.99264 50.4831 9.61086C50.7757 9.69207 50.9218 9.78961 50.9381 9.88693L51.1493 9.87082C52.7579 8.69283 54.334 7.84784 55.8858 7.33608L55.9019 7.53911C55.6177 7.96966 55.4226 8.18902 55.3171 8.19718C55.3332 8.34349 55.3738 8.47347 55.4471 8.58712C55.4714 8.85525 54.7727 10.6425 53.3429 13.9572C50.077 21.6344 47.3391 27.3132 45.1131 31.0016C45.1212 31.0747 45.17 31.1722 45.2594 31.3022C45.8038 31.1722 46.1531 31.0341 46.2913 30.9041L46.3886 30.8959L46.4049 31.099L46.6324 31.0829L46.8355 30.9772C46.8436 31.0341 46.9167 31.0584 47.0548 31.0504L47.0712 31.2698C47.0873 31.4646 46.9736 31.7734 46.7218 32.1958C46.4861 32.4478 46.2425 32.9758 45.9825 33.78L45.9905 33.8857L46.2019 33.8694C47.0873 32.8783 47.7617 31.9033 48.2247 30.9447C50.8163 30.1812 52.7905 29.4417 54.1552 28.7105C55.5446 28.5887 56.5924 28.2312 57.3074 27.6301L57.2993 27.5244L56.7712 27.6789L56.6575 27.687L56.6494 27.5813C57.6568 27.435 58.3636 27.2077 58.7454 26.9071C60.7114 25.3959 62.1981 24.3155 63.2056 23.6817C66.3414 21.399 67.8039 19.2054 67.6251 17.1012ZM67.0889 17.2393L67.1619 18.0598C67.0646 18.2631 66.9589 18.3686 66.8614 18.3767L66.7395 16.9794C66.9671 17.0606 67.0807 17.1418 67.0889 17.2393ZM5.57307 10.6264L5.43514 10.6344L5.41065 10.3826L5.97118 10.3338L5.97934 10.4638C5.88996 10.472 5.75182 10.5207 5.57307 10.6264ZM2.8353 38.0127C2.51046 37.8664 2.21784 37.8096 1.96604 37.8339L1.9336 37.4358C1.91727 37.2816 2.00665 37.1758 2.20173 37.1352C2.38026 37.1191 2.48597 37.2491 2.5023 37.5091C2.97345 36.9322 3.23341 36.6398 3.28218 36.6316L3.58275 36.7535C3.48521 37.5658 3.23341 37.9802 2.8353 38.0127ZM32.0903 7.40913C31.9521 7.42546 31.6758 6.99491 31.2779 6.14176L31.2534 5.88996C31.5134 5.86569 31.7815 6.28807 32.0658 7.15733L32.0903 7.40913ZM31.7003 4.37896L31.5865 4.64709L27.6138 2.98956C30.2624 3.07894 31.6273 3.54214 31.7003 4.37896ZM14.924 18.783L14.3634 18.8318L14.3392 18.5798L14.8997 18.531L14.924 18.783ZM14.4689 10.1308L14.6071 10.1226L14.6397 10.5207C14.5097 10.5289 14.3392 10.7238 14.1278 11.0976L14.1035 10.8213C14.3553 10.5207 14.4853 10.2932 14.4689 10.1308ZM13.2909 12.9092L13.3397 13.4372L13.2018 13.4454L13.153 12.9173L13.2909 12.9092ZM12.6737 13.9004L12.9418 13.876C12.9173 14.3147 12.7955 14.5504 12.5761 14.5665L12.438 14.5746C12.6086 14.2822 12.6898 14.0547 12.6737 13.9004ZM12.2105 15.2815L12.365 15.2651L12.3729 15.3951L12.1211 15.8177L11.853 15.842L11.845 15.712C12.1132 15.6877 12.235 15.5496 12.2105 15.2815ZM11.7557 16.5246L11.6744 17.1906L11.5363 17.1987L11.4794 16.5407L11.7557 16.5246ZM7.19794 29.4825C7.01919 30.3923 6.82432 30.8553 6.62108 30.8717L6.61313 30.7417C6.56436 30.2948 6.75922 29.8724 7.19794 29.4825ZM6.36112 31.294L6.36928 31.424C6.38561 31.6028 6.3044 31.7085 6.12565 31.7164L6.11749 31.5865C6.10116 31.4322 6.18237 31.3347 6.36112 31.294ZM6.11749 35.0555L6.53987 35.0149L6.5562 35.1612C6.45049 35.1692 6.31235 35.2261 6.14176 35.3237L5.87364 35.3479C5.85752 35.2098 5.9469 35.1043 6.11749 35.0555ZM18.141 31.3428C15.7689 32.5126 14.3716 33.3089 13.9572 33.7231C11.39 34.6168 10.1145 35.1692 10.1389 35.3886C7.85601 36.2905 6.35295 36.9565 5.63 37.3709C5.45942 37.387 5.21578 37.3222 4.89072 37.1758C4.85012 36.7129 5.06131 36.339 5.50819 36.0385C5.90629 36.006 6.28807 36.063 6.65374 36.2172C7.07612 35.9979 7.8154 35.7542 8.86341 35.4943L8.83914 35.218L7.99415 35.291C8.09964 35.1449 8.91218 34.7631 10.4395 34.1457L10.8619 34.1051L10.8701 34.2351C10.1471 34.2999 9.749 34.5111 9.65963 34.8931C9.67574 35.0637 9.77328 35.1368 9.95203 35.1204C10.4964 34.7793 10.7644 34.5762 10.7564 34.5193C11.7881 34.3244 14.6397 32.8295 19.3111 30.043L19.3354 30.2948C19.3435 30.4166 18.9454 30.7578 18.141 31.3428ZM10.9758 33.6988C11.6581 33.6419 12.2431 33.3658 12.7304 32.8865C12.9255 32.8701 13.0312 32.9432 13.0391 33.1138C12.7061 33.1464 12.0644 33.4225 11.13 33.9588L10.9919 33.9669L10.9758 33.6988ZM22.5363 24.8191L18.9536 27.6625C16.2889 29.4092 14.8591 30.2866 14.6477 30.303C10.4071 32.6345 7.76663 33.8451 6.74311 33.9345L6.58864 33.9506C6.71862 33.4713 8.60345 29.6125 12.2592 22.3494C13.8678 22.2113 16.4025 21.4638 19.8553 20.0991L20.7003 20.0259C22.447 19.8716 23.7549 20.2128 24.616 21.0251L24.6648 21.5532C24.0231 23.4138 23.3081 24.5024 22.5363 24.8191ZM15.5333 20.879L16.1101 20.8303L16.1183 20.9602L15.5414 21.009L15.5333 20.879ZM23.6331 19.506L24.0555 19.4653C24.4454 19.6523 24.6485 19.8147 24.6648 19.961L24.673 20.091C24.2991 20.1234 23.9498 19.9283 23.6331 19.506ZM24.7785 12.9824C24.4048 13.4291 23.3811 14.1928 21.7077 15.2651C21.1551 15.3139 19.0997 16.1101 15.5414 17.6699C15.3635 17.5886 15.1675 17.555 14.9727 17.5724L14.9485 17.3206C14.9079 16.8088 15.1352 16.1671 15.639 15.3872C15.915 13.9247 16.2158 13.0879 16.5488 12.8849L19.5141 6.21502C19.4817 5.80059 20.1153 5.48369 21.4151 5.26434L21.8377 5.22373L21.8701 5.60572C23.1456 5.41065 23.9416 5.29699 24.2504 5.2725C26.6066 5.06947 27.8331 5.54879 27.9307 6.69434L28.1988 6.66985L28.1418 5.99567L28.4345 5.97118C29.125 6.35295 29.4986 6.81616 29.5474 7.36036C29.5798 7.73419 29.3768 8.19718 28.9462 8.74976C28.7675 8.76587 28.6618 8.63589 28.6457 8.37593L28.353 8.40042L28.2882 9.21275C27.0938 11 26.2246 11.9181 25.6885 11.9668C25.2011 12.641 24.9005 12.9742 24.7785 12.9824ZM26.5984 17.6538C26.3546 17.4911 26.1597 17.4181 26.0134 17.4263L25.9809 17.0282L26.2491 17.0037L26.842 17.3532C26.8665 17.5399 26.7851 17.6375 26.5984 17.6538ZM28.4832 19.8877C28.7432 19.9934 28.8975 20.1071 28.9299 20.2128L28.7999 20.2452L28.8081 20.2534C28.7838 20.2534 28.7511 20.2616 28.7269 20.2697L28.5318 20.424L28.4832 19.8877ZM28.6618 21.009L28.6375 20.9033L28.9787 20.8221L29.0032 20.9278L28.6618 21.009ZM29.4825 21.927C29.8318 21.8701 30.0024 21.8458 30.6523 21.6995L30.6766 21.805L29.4419 22.0895C29.458 22.0325 29.4743 21.9758 29.4825 21.927ZM30.6847 22.4388C30.1648 22.4876 30.2785 22.4225 29.4498 22.6094L29.4255 22.5037L30.4654 22.1707L30.961 22.057L31.0098 22.2519C30.7823 22.3007 30.9447 22.3007 30.6847 22.4388ZM31.7815 22.1788C31.6597 22.2113 31.5622 22.1546 31.5052 22.0164L31.8221 21.9432C31.9603 21.9107 32.0497 21.9676 32.0821 22.1058L31.7815 22.1788ZM34.755 18.9779L34.7305 18.8724L35.2425 18.7503L35.2912 18.9454L34.755 18.9779ZM37.9315 38.4595C37.9639 38.3132 37.9721 38.2077 37.9557 38.1345L38.0696 38.1102C38.2077 38.0778 38.289 38.1265 38.3214 38.2565L38.3459 38.362L37.9315 38.4595ZM40.1575 19.8147L39.9299 19.7741C39.5645 19.9204 39.2558 20.0259 39.0037 20.0828L38.7926 20.1316C38.6707 20.164 38.5732 20.1153 38.5244 19.9853L40.0112 19.6441L40.4986 19.4166L40.6613 19.6035C40.4256 19.6523 40.255 19.7253 40.1575 19.8147ZM41.303 19.449L41.2785 19.3435C41.3518 19.3272 41.4491 19.2705 41.5548 19.1648L42.611 18.9209L42.6353 19.0266C42.0747 19.1648 41.6279 19.3029 41.303 19.449ZM41.4654 17.3124C41.3924 17.3287 41.2948 17.3936 41.173 17.4911C41.1567 17.4181 41.0106 17.4181 40.7343 17.483C40.6855 17.2799 41.4654 16.9957 43.0821 16.6219L43.3097 16.5731L43.3584 16.7682C42.221 17.1012 41.5872 17.2881 41.4654 17.3124ZM44.3089 14.2416C44.1953 15.5333 43.7402 16.2644 42.9358 16.4513L42.9116 16.3458L42.1965 16.6219L41.8799 16.6951C41.7172 16.7357 41.5711 16.7276 41.4412 16.687L41.3761 16.4025C41.3518 16.297 42.3835 14.867 44.4795 12.1211L44.7231 12.1617C44.8125 12.5355 44.6746 13.226 44.3089 14.2416ZM49.3378 9.9357L49.2402 9.94387L49.2239 9.74084L49.6465 9.70023L49.6544 9.80572C49.5814 9.82205 49.4759 9.86265 49.3378 9.9357ZM47.266 30.7417C47.0224 30.6278 46.803 30.579 46.6161 30.5954L46.5918 30.2866C46.5837 30.1812 46.6486 30.1079 46.7867 30.0673C46.9249 30.0512 47.0061 30.1485 47.0224 30.3597C47.3717 29.913 47.5666 29.6855 47.6072 29.6855L47.8266 29.7749C47.7453 30.3923 47.5586 30.7172 47.266 30.7417ZM69.4773 7.50667C69.3718 7.51483 69.1686 7.18977 68.8519 6.53171L68.8356 6.32868C69.0386 6.31235 69.25 6.62924 69.4612 7.27915L69.4773 7.50667ZM69.1849 5.18313L69.0874 5.39432L66.0815 4.13511C68.0881 4.20021 69.128 4.54955 69.1849 5.18313ZM56.4382 16.1264L56.0158 16.1671L55.9995 15.9638L56.4218 15.9232L56.4382 16.1264ZM56.0888 9.55392L56.2025 9.54576L56.227 9.85449C56.1213 9.86266 55.9913 10.009 55.837 10.2932L55.8207 10.0902C56.0076 9.85449 56.097 9.67574 56.0888 9.55392ZM55.2032 11.6663L55.2359 12.0644L55.122 12.0725L55.0896 11.6744L55.2032 11.6663ZM54.7239 12.4217L54.9351 12.4056C54.9108 12.7467 54.8215 12.9255 54.6672 12.9416L54.5533 12.9498C54.6752 12.7225 54.7321 12.5437 54.7239 12.4217ZM54.3828 13.4617L54.4803 13.4536L54.4885 13.5591L54.3015 13.8841L54.0903 13.9004L54.0822 13.7947C54.3015 13.7784 54.3991 13.6648 54.3828 13.4617ZM54.0416 14.404L53.9685 14.924L53.871 14.9321L53.8304 14.4204L54.0416 14.404ZM50.5725 24.2585C50.4346 24.9411 50.2882 25.2904 50.1338 25.3065L50.1258 25.2172C50.1013 24.876 50.2476 24.5509 50.5725 24.2585ZM49.9307 25.6316L49.9389 25.721C49.9552 25.8671 49.8901 25.9483 49.7438 25.9564L49.7359 25.851C49.7277 25.7453 49.7926 25.6722 49.9307 25.6316ZM49.752 28.4912L50.0771 28.4669L50.085 28.5724C50.012 28.5806 49.8983 28.6212 49.7683 28.6944L49.5571 28.7105C49.549 28.5969 49.6138 28.5238 49.752 28.4912ZM58.8754 25.6722C57.0881 26.5578 56.0237 27.1589 55.6907 27.4677C53.741 28.15 52.7742 28.5724 52.7905 28.743C51.06 29.4337 49.9226 29.9291 49.3865 30.246C49.2566 30.2542 49.0696 30.2054 48.8258 30.0918C48.7934 29.7424 48.9558 29.458 49.2972 29.2468C49.6059 29.2225 49.8983 29.2631 50.1664 29.3768C50.4913 29.2144 51.0518 29.0356 51.848 28.8324L51.8319 28.6293L51.1738 28.6863C51.255 28.5724 51.8805 28.28 53.0423 27.8088L53.3672 27.7843L53.3753 27.8737C52.823 27.9225 52.5142 28.0851 52.4492 28.3775C52.4573 28.5075 52.5385 28.5724 52.6767 28.5563C53.0829 28.2882 53.2778 28.1337 53.2778 28.0851C54.0579 27.947 56.2188 26.8096 59.7691 24.6811L59.7852 24.8842C59.7852 24.9654 59.4847 25.2253 58.8754 25.6722ZM53.4323 27.4595C53.9604 27.4107 54.4072 27.2077 54.7809 26.8502C54.919 26.842 55.0002 26.899 55.0084 27.029C54.7645 27.0532 54.2852 27.2565 53.5623 27.6464L53.4486 27.6544L53.4323 27.4595ZM62.2226 20.7084L59.5173 22.8857C57.4943 24.2098 56.3976 24.876 56.227 24.8923C53.0099 26.6633 51.0112 27.5813 50.2231 27.6464L50.1095 27.6544C50.207 27.2889 51.645 24.3561 54.4234 18.8479C55.6338 18.7424 57.5513 18.1655 60.1833 17.1257L60.8414 17.0688C62.1657 16.9551 63.1568 17.2151 63.8067 17.8405L63.8393 18.2386C63.3437 19.6359 62.8075 20.4564 62.2226 20.7084ZM56.9093 17.7187L57.3319 17.6781L57.3399 17.7838L56.9175 17.8244L56.9093 17.7187ZM63.0592 16.6707L63.3843 16.6464C63.6849 16.7925 63.8393 16.9224 63.8473 17.0282L63.8555 17.1175C63.5712 17.1418 63.3031 16.9957 63.0592 16.6707ZM63.9124 11.723C63.6279 12.0644 62.8562 12.6492 61.597 13.4617C61.1746 13.5023 59.6146 14.1035 56.9175 15.2733C56.7875 15.2245 56.6412 15.2084 56.4869 15.2164L56.4706 15.0133C56.4382 14.6234 56.6088 14.1359 56.9826 13.5429C57.1938 12.4217 57.4292 11.7963 57.6731 11.6499L59.9397 6.58047C59.9152 6.27991 60.3945 6.03627 61.3695 5.84936L61.6946 5.82508L61.7188 6.1336C62.6775 5.97934 63.2786 5.88996 63.5225 5.86569C65.3097 5.71121 66.2439 6.06872 66.3171 6.94614L66.5283 6.92981L66.4877 6.44233L66.6989 6.42622C67.2189 6.71046 67.4951 7.05163 67.5276 7.4579C67.5519 7.7503 67.4058 8.10781 67.097 8.52224C66.9589 8.53835 66.8777 8.44103 66.8614 8.22962L66.6502 8.24595L66.5853 8.85525C65.6834 10.2283 65.0253 10.9349 64.6111 10.9676C64.2454 11.463 64.0179 11.715 63.9124 11.723ZM64.8629 15.1027L64.8386 14.794L65.0498 14.7779L65.5046 15.0539C65.5128 15.1839 65.4479 15.2572 65.3097 15.2733C65.1147 15.1515 64.9686 15.0946 64.8629 15.1027ZM27.0451 34.8362L26.8339 34.885L26.6551 35.0392C26.6878 35.1692 26.769 35.218 26.9071 35.1855C27.0451 35.1531 27.102 35.0719 27.0696 34.9419L27.0451 34.8362ZM26.2409 33.2358L26.2652 33.3413C26.4033 33.3089 26.4603 33.2276 26.4278 33.0977L26.4033 32.992C26.2733 33.0244 26.2164 33.1058 26.2409 33.2358ZM31.9927 22.4306L32.1472 22.3331C32.1145 22.3331 32.0903 22.3249 32.0658 22.317C32.0091 22.3331 31.9846 22.3737 31.9927 22.4306ZM31.9603 19.6278L32.2039 19.5711L32.1551 19.3596L31.9115 19.4166L31.9603 19.6278ZM89.3734 27.8331L88.8208 27.7682L88.7233 27.9794L88.7315 28.0851L92.0218 27.8088L92.0055 27.6058L89.3734 27.8331ZM92.3793 27.5813L92.3954 27.7843H92.4279L92.4117 27.5813H92.3793ZM106.182 25.7777L106.198 25.9809L106.556 26.0458L106.539 25.8428L106.182 25.7777ZM105.678 25.8183C103.209 26.3709 102.9 26.2733 102.38 26.3139L102.396 26.517L102.624 26.5009L102.746 26.4927L102.713 26.4684L102.981 26.3627C105.427 26.0946 105.711 26.1921 105.687 25.9158L105.678 25.8183ZM90.852 22.2276L90.6326 22.1546C90.4539 22.6337 90.3645 22.9181 90.3727 22.9993L90.3806 23.0887C90.5514 23.0805 90.7057 22.7881 90.852 22.2276ZM87.8785 20.6272L87.8704 20.5215L87.7567 20.5297L87.5535 20.6597L87.6673 20.8545C87.8216 20.8384 87.8946 20.7652 87.8785 20.6272ZM94.3372 27.305L94.3209 27.102L94.256 27.1102L94.2721 27.3132L94.3372 27.305ZM107.742 24.283L107.896 24.2667C107.986 24.2585 108.026 24.1855 108.018 24.0555L107.929 23.8604C107.368 23.9092 107.108 23.9337 106.653 24.1855L106.645 24.0798L105.971 24.1449C105.955 23.9416 105.898 23.8361 105.808 23.8443L105.459 23.8768C105.053 23.9092 104.858 23.8931 104.655 24.0473C104.647 23.9743 104.622 23.9416 104.582 23.9416L104.192 23.9743L103.964 24.1043C103.956 24.031 103.932 23.9986 103.891 23.9986L103.753 24.1204L103.745 24.0149L103.201 23.9743L103.071 23.9825L103.087 24.1855L103.363 24.2585L103.623 24.2424C103.712 24.2991 103.81 24.3155 103.924 24.3073L104.151 24.1936L104.159 24.283C102.884 24.5997 102.892 24.543 102.014 24.6891C101.917 24.6242 101.844 24.5918 101.795 24.5997L101.779 24.616C101.681 24.6079 101.624 24.543 101.616 24.4373L102.071 24.3803C102.104 24.3803 102.128 24.413 102.38 24.4618C102.746 24.283 102.762 24.2098 102.957 24.1936L102.941 23.9904C101.689 24.2343 102.193 24.0716 100.625 24.2098L100.552 24.2179L100.536 24.0149C102.551 23.771 101.876 23.9092 102.567 23.7143C102.575 23.7874 102.599 23.8198 102.64 23.8198C102.714 23.7443 102.811 23.6956 102.916 23.6817L103.054 23.6737C103.761 23.6168 103.997 23.7549 105.394 23.365L105.402 23.4544L105.63 23.3405L105.841 23.3244C105.825 23.1211 106.133 23.0887 106.239 23.0805L106.223 22.8612C103.769 23.3568 103.127 23.2187 102.445 23.4138L102.437 23.3244C101.795 23.438 101.771 23.3893 101.608 23.3974C101.559 23.4056 101.486 23.4462 101.405 23.5274C101.397 23.4544 101.373 23.4217 101.324 23.4217C101.299 23.4217 101.291 23.4299 101.283 23.4299L99.2034 23.771C99.1955 23.7143 99.171 23.6817 99.1222 23.6898C98.0417 23.9174 98.3342 23.958 96.888 24.0879C96.8231 24.0961 96.7338 24.1286 96.6201 24.2016C96.612 24.1449 96.5793 24.1124 96.5063 24.1204L95.6207 24.1936L95.0277 24.3397C95.0195 24.283 94.9871 24.2504 94.914 24.2585C94.5808 24.3479 94.2884 24.4048 94.0527 24.421H94.0366C93.8903 24.4373 94.1097 24.3803 93.996 24.3318L93.8173 24.4373C93.5573 24.4618 93.6954 24.421 92.8017 24.4291C91.2337 24.6242 91.4043 24.6485 91.2337 24.6566L90.6487 24.616C90.6569 24.673 90.6245 24.7136 90.5593 24.7136C89.8933 24.6242 89.5522 24.5185 89.544 24.3967C89.6334 23.7631 89.7876 23.438 90.007 23.4217L90.1209 23.4138L90.0233 23.625L90.137 23.6168C90.3482 23.5029 90.4457 23.3974 90.4375 23.2999L90.4214 23.0805L90.21 23.0969L90.1939 22.8936C90.1776 22.7394 90.2021 22.6012 90.2588 22.4876L90.7381 21.7156L90.7544 21.9189L90.982 21.9025L90.9656 21.6995L90.8356 21.5126C91.0062 21.3663 91.1362 21.2851 91.2419 21.2769L91.2337 21.1714L90.925 21.1957L90.9007 20.887C91.5182 19.6035 91.8106 18.856 91.7943 18.6449L92.0136 18.7342C92.1518 18.7261 92.2167 18.6449 92.2087 18.4985L91.9973 18.5149L91.9894 18.4255C91.9743 18.2772 92.0025 18.1276 92.0706 17.995C92.4036 17.6456 92.5581 17.2963 92.5254 16.9306C92.5905 16.9224 92.6229 16.9551 92.6311 17.0282C92.9156 16.8657 93.1349 16.435 93.2973 15.7202C93.8009 14.8103 94.5159 12.9904 95.4501 10.2689C97.2376 5.45942 97.1643 4.94766 97.4161 3.81027L97.2049 3.82638C97.2213 3.97269 97.1888 4.11084 97.1237 4.24082C96.9774 4.18388 96.8638 4.15144 96.7825 4.15961L96.7744 4.07023C96.7419 3.6558 96.9125 3.16036 97.3025 2.57534L97.4 2.56718L97.5788 3.26585L97.7899 3.24974C97.7818 3.20097 97.8387 2.92468 97.9524 2.41292C97.9442 2.30722 97.863 2.24233 97.7006 2.23417L97.4975 2.36415C97.4812 2.21784 97.4894 1.83606 97.5137 1.22676L97.408 1.23493C97.2294 1.05618 97.14 0.909867 97.1319 0.78805L95.97 0.901703C95.9621 0.820491 95.9214 0.698675 95.84 0.544201C95.8321 0.438713 96.092 0.333009 96.6281 0.22752L96.8638 0.316896L97.0831 0.186915C97.0913 0.259962 97.1319 0.292403 97.2131 0.284239L97.4324 0.154258C97.4406 0.22752 97.4812 0.259962 97.5624 0.251798L97.6681 0.243634L97.6518 0.00816409C97.4894 0.0242774 97.0588 0.0242774 96.3763 0L96.1569 0.146309L96.1488 0.0163282C90.6975 0.46299 87.6022 0.715003 86.863 0.78805C86.7654 0.796214 86.3836 0.78805 85.7095 0.771722C85.7174 0.861097 85.6362 0.909867 85.4738 0.926195L85.2381 0.820491L84.4421 1.02373C84.2552 1.03985 83.9383 1.03168 83.4996 0.982914C83.3777 1.08045 83.2314 1.13739 83.0527 1.15372C82.9554 1.16166 84.2146 1.08862 85.3844 1.00741C85.2626 1.10495 85.0757 1.16166 84.8157 1.18616C84.637 1.20227 84.4827 1.17799 84.3527 1.10495C84.174 1.18616 83.5971 1.31614 82.6303 1.511L82.3948 1.42163L78.5927 2.00665C78.4464 1.9336 78.2758 1.90911 78.0807 1.92544C77.8777 1.94155 77.5366 2.01481 77.0654 2.14479L75.2293 2.90835L75.3673 3.13587C75.4566 3.12771 75.5866 3.07894 75.7411 2.98956L76.391 3.0465L76.3098 3.6558C75.7087 3.92392 75.3593 4.32203 75.2618 4.82562C74.3601 5.22373 73.9132 5.50819 73.9132 5.67877L73.9214 5.78426L74.0593 5.77631L74.3031 5.64633L74.5874 5.9875L74.628 6.45866C74.6443 6.60497 73.1251 9.79756 70.0866 16.0371C67.4545 22.0489 66.0733 25.3392 65.9433 25.9322C65.0416 26.184 64.5217 26.5496 64.3672 27.0371C64.3836 27.1914 64.6517 27.2971 65.1716 27.3377L65.1959 27.5732L64.9604 27.9631L65.001 28.4345C65.0253 28.6781 65.6834 28.865 66.9752 28.995C66.9671 28.9138 67.0077 28.865 67.097 28.8569C67.1213 29.1493 67.0401 29.7179 66.8532 30.5629L66.9913 30.5548C67.5276 29.8237 67.7794 29.3198 67.7551 29.0438L67.8688 29.0356C67.9987 29.0274 68.1369 29.1737 68.2993 29.4904C68.1369 29.5555 67.5682 30.8472 66.5932 33.3737L66.7314 33.6013L66.8695 33.5931C68.0638 30.5711 68.8113 28.8975 69.1198 28.5806C70.688 28.4424 73.4012 28.1663 77.2521 27.7519L77.4959 27.6056C77.5039 27.687 77.5527 27.7276 77.642 27.7195L77.8941 27.695L78.1377 27.5489C78.1459 27.6301 78.1946 27.6707 78.284 27.6625L81.2005 27.4107C81.9722 27.3456 82.3379 27.1102 82.3052 26.7121C82.2973 26.6064 82.7521 26.4845 83.6702 26.3546C83.7595 26.3464 83.8895 26.3709 84.0683 26.4276C84.0601 26.3546 84.5233 26.2815 85.4495 26.2003C85.4738 25.7128 85.628 25.4529 85.9043 25.4284L85.88 25.1929C85.6201 25.2172 85.3275 25.2823 84.9863 25.3959C84.377 25.3635 83.987 25.3147 83.8246 25.2578C83.662 25.3472 83.5402 25.3959 83.4508 25.4041L81.4199 25.469L81.176 25.5989C81.1679 25.5259 81.1193 25.4935 81.0299 25.5016L80.9161 25.5096L80.6561 25.6398C80.6479 25.5665 80.4367 25.5096 80.0144 25.4529L79.7544 25.6071L79.2508 25.6477L79.2426 25.5177C81.8586 25.2335 83.1502 24.876 83.1178 24.4536C83.2884 24.4373 83.3777 24.5185 83.3939 24.6891L84.1576 24.4942L84.1334 24.2585L77.8696 24.4291C77.8777 24.5103 77.8371 24.5591 77.7477 24.5673L76.984 24.5024C76.7891 24.5185 76.6267 24.5754 76.4967 24.673L76.2122 24.5673C75.4242 24.6324 74.8392 24.7297 74.4492 24.8517C73.9132 24.8111 73.32 24.8191 72.6619 24.876L71.2566 24.9978L70.6067 24.9248C70.5741 24.5103 71.3785 22.4712 73.0358 18.8154C73.5151 17.5805 73.9538 16.8088 74.3762 16.5164C74.4656 16.5082 74.5955 16.5407 74.7743 16.6137L75.7735 16.2725L76.2853 16.3538C77.1466 16.2807 78.1459 16.0371 79.2914 15.6145C79.5756 15.5902 79.7868 15.6065 79.9413 15.6714L80.7049 15.4927L82.9796 15.2976C83.9464 15.2164 84.9945 15.0052 86.1318 14.6558L86.1073 14.4204C85.685 14.461 85.4656 14.3877 85.4495 14.2171C85.425 13.9004 85.1163 13.7702 84.5233 13.819L84.4988 13.5835L85.1244 13.4048L86.7654 13.2667L86.7411 13.0312C86.676 13.0391 86.343 13.0312 85.7256 13.0067L85.7013 12.7549L86.3349 12.698C86.5055 12.6818 86.5787 12.6004 86.5624 12.438C85.7095 12.4623 85.2787 12.4217 85.2707 12.308C79.3238 12.6004 76.3422 12.6574 76.3261 12.4704C76.2367 12.4786 76.1147 12.5355 75.9523 12.6331L75.798 12.3892C77.3739 9.04216 78.3001 7.3522 78.5682 7.32792C78.5764 7.4579 78.5113 7.66909 78.3732 7.95355L78.3813 8.05904L78.6333 8.03476C79.2587 6.53987 79.7868 5.76815 80.2255 5.73571C82.094 5.57307 79.9656 5.45125 83.9628 4.82562C84.1252 4.89889 84.2388 4.93133 84.3201 4.92316C85.888 4.60627 88.0734 4.27326 90.8763 3.93209L90.8599 3.6964L89.3652 3.83455L89.3489 3.59886C89.5277 3.58275 89.674 3.52581 89.7958 3.42827L89.804 3.55826C89.8852 3.55031 89.9988 3.49337 90.1451 3.39583C90.4051 3.37156 90.6 3.39583 90.7381 3.46888C91.258 3.33095 91.6806 3.24952 91.9894 3.21708L92.9235 3.12771C93.151 2.98161 93.2567 2.85163 93.2486 2.7296L93.2404 2.62411C93.0047 2.64839 92.7368 2.63228 92.4199 2.57534C92.4117 2.44536 92.4766 2.35599 92.6311 2.31538L94.3696 2.15296L95.1658 1.94971C95.174 2.03909 95.2146 2.07153 95.2795 2.07153C95.3607 2.06358 95.4746 2.00665 95.6207 1.90911C95.6615 1.91727 95.71 1.91727 95.7506 1.92544C95.6452 2.14479 95.5233 2.46169 95.4013 2.87591L95.174 2.89224C95.1577 2.73776 95.1171 2.59962 95.044 2.4778L94.9302 2.48597C92.818 8.36777 91.8755 11.1057 89.9258 15.6226C89.5683 16.7764 89.2677 17.4181 89.0078 17.5562C89.0159 17.6862 89.0971 17.7511 89.2353 17.735C89.284 18.3037 89.1541 18.8642 88.8372 19.4166C87.9352 22.0164 87.3341 23.438 87.0254 23.698L87.2286 24.9248C87.2366 25.0547 87.1717 25.1278 87.0335 25.1441L86.8223 25.1604C86.7899 24.8191 86.6679 24.6566 86.4487 24.6811L86.3349 24.6891C86.0586 25.1196 85.8474 25.6153 85.7095 26.1921L85.9206 26.1758C86.2049 25.9891 86.3349 25.7697 86.3106 25.5177L86.733 25.4771L86.9766 25.5665C86.7817 25.8752 86.6924 26.1191 86.7087 26.3058L86.8223 26.5009L86.5461 27.1508L86.5542 27.2565C86.7981 27.232 87.066 27.3132 87.3504 27.4838C87.5453 27.4677 87.7567 27.3783 87.9922 27.2238C88.236 27.1995 89.1459 27.1914 90.7138 27.1914L91.5019 26.9233C92.4605 26.9151 92.6148 26.9396 93.4434 26.8663L93.7846 26.8339L93.9634 26.7121L93.9715 26.8178C94.8408 26.7445 94.8977 26.8014 95.5801 26.8826L95.5882 26.9883L95.1089 27.029L95.1252 27.232C95.2713 27.2157 95.4013 27.175 95.507 27.0857C95.6288 27.0777 95.7019 27.1426 95.71 27.2889C95.5152 27.305 95.2958 27.3538 95.052 27.435L94.8408 27.362C94.5078 27.4513 94.5808 27.4756 94.3533 27.4919L94.0203 27.4271C94.0285 27.4838 93.996 27.5244 93.9391 27.5244C93.9472 27.6544 94.0203 27.7195 94.1421 27.7113L94.4833 27.6789L96.2626 27.5244L96.9368 27.3783C96.945 27.435 96.9692 27.4677 97.0262 27.4595L97.3512 27.3377L97.9605 27.2889C98.4317 27.2483 98.4235 27.2157 99.4473 27.0532C99.4391 26.9883 99.4634 26.9639 99.5121 26.9557L99.5203 27.0451C101.186 26.7608 101.291 26.7445 101.559 26.6551L101.584 26.7039C101.998 26.6064 101.763 26.6308 101.876 26.5496C101.884 26.6227 101.909 26.6551 101.949 26.6551L102.242 26.6308L102.226 26.4115L101.633 26.4033L101.624 26.387C101.6 26.3952 101.584 26.3952 101.559 26.4033H101.478V26.4197C101.08 26.5009 101.072 26.4439 100.812 26.4684L99.3252 26.5496L99.3173 26.4439L100.146 26.3303L100.447 26.3058L100.617 26.184L100.625 26.2897C101.795 26.1921 102.209 26.4845 107.62 25.331C107.913 25.3065 107.888 25.0629 108.075 24.5591C107.976 24.5659 107.877 24.5433 107.791 24.4942C107.344 24.6648 107.108 24.5836 106.247 24.7217C106.174 24.7299 106.117 24.6648 106.093 24.5348L106.084 24.4454L106.913 24.4697C107.068 24.4536 107.368 24.4291 107.815 24.1773C107.815 24.2504 107.644 24.291 107.742 24.283H107.742ZM67.7388 24.9248L67.357 24.9572C67.3407 24.8029 67.5439 24.2179 67.9663 23.2187L68.2181 23.1944C68.2263 23.4299 68.0718 24.0067 67.7388 24.9248ZM68.202 23.0724L68.1938 22.9669C68.1857 22.8369 68.2669 22.7475 68.4456 22.7069L68.4538 22.8124C68.4619 22.9669 68.3805 23.0563 68.202 23.0724ZM73.2794 26.9963L73.2876 27.102L72.654 27.1589L72.6458 27.0532L73.2794 26.9963ZM72.5158 26.9314C72.524 27.0614 72.3289 27.2077 71.9065 27.3538L71.1264 27.2971L70.8746 27.3214L70.8504 27.0857L72.5158 26.9314ZM77.6502 3.29829L77.2684 3.33095L77.2603 3.20097C77.2521 3.07099 77.3254 2.98161 77.4878 2.94101L77.6259 2.93284L77.8859 3.03833C77.8938 3.19281 77.8208 3.28218 77.6502 3.29829ZM83.459 2.16091L83.5808 2.15296L83.5971 2.38843L83.2478 2.42087C83.2396 2.29089 83.3045 2.20173 83.459 2.16091ZM81.9965 2.67288L81.4199 2.60778L81.4117 2.5023C82.1673 2.4372 82.4191 2.35599 82.8821 2.226C82.8903 2.31538 82.9715 2.34782 83.1178 2.33171L83.1339 2.56718L82.9066 2.59167C82.7278 2.60778 82.5734 2.58351 82.4434 2.51024C82.3052 2.59962 82.1591 2.65655 81.9965 2.67288ZM82.7197 4.77707L82.7115 4.67137L83.6459 4.58199L83.654 4.68769L82.7197 4.77707ZM83.7189 3.96453L83.7108 3.83455L84.1658 3.79394L84.174 3.92392L83.7189 3.96453ZM83.8246 2.37231L83.7026 2.38026L83.8083 2.12847L84.8481 2.03093L84.8563 2.16091C84.5882 2.1854 84.2388 2.25845 83.8246 2.37231ZM84.3527 4.61443L84.3364 4.37896L84.7914 4.33836C84.9457 4.32203 85.0269 4.39508 85.0351 4.55771L84.3527 4.61443ZM87.1066 0.861097L86.5218 1.02373L86.4161 1.03168C86.14 1.05618 85.7825 1.04801 85.3599 1.00741C86.1155 0.958637 86.8387 0.901703 87.1066 0.861097ZM86.4812 3.46093L86.4893 3.56642L85.685 3.63968L85.6768 3.53398L86.4812 3.46093ZM87.7973 4.08634C87.7891 3.98902 87.6347 3.92392 87.318 3.89148L86.5136 4.119L85.8962 4.14328C85.758 4.04574 85.685 3.98086 85.6768 3.93209L86.3918 3.97269L88.0003 3.71273L88.8208 3.74517L88.829 3.87515C88.4227 3.91576 88.0816 3.98902 87.7973 4.08634ZM96.0757 1.94971C96.1732 1.95788 96.2381 1.95788 96.2626 1.95788C96.5469 1.68159 96.8638 1.46223 97.2294 1.30797C96.9368 2.59167 96.482 3.54214 95.8563 4.15961L95.4013 3.88332C95.7833 2.91652 96.0108 2.27477 96.0757 1.94971ZM94.6784 4.34631L94.792 4.33836C94.6377 4.63076 94.4996 4.78502 94.3859 4.79318L94.3615 4.48445C94.4347 4.48445 94.5402 4.43568 94.6784 4.34631ZM93.7766 6.49926C93.996 5.62184 94.2072 5.12641 94.4021 4.99643L94.4102 5.10191C94.2966 5.91424 94.1178 6.34501 93.8821 6.37745L93.9227 6.88921C93.7279 7.1655 93.6385 7.37669 93.6465 7.53911L93.5328 7.54728L93.4679 6.84044C93.5979 6.82432 93.7034 6.71046 93.7766 6.49926ZM93.4273 7.66909C93.4353 7.79091 93.3541 8.07536 93.1916 8.51408L93.078 8.52224L93.0535 8.21351C93.208 7.85601 93.3379 7.67726 93.4271 7.66909H93.4273ZM86.8711 26.6957L86.863 26.6064L87.0742 26.5902L87.0986 26.899C86.9848 26.9071 86.9036 26.842 86.8711 26.6957ZM96.2381 26.9396C96.23 26.8663 96.1975 26.8339 96.1245 26.842L95.5964 26.8908L95.5882 26.7851H95.637L96.888 26.6796L96.8962 26.7851C96.5307 26.8014 96.3114 26.8584 96.2381 26.9396ZM95.6127 26.6796C95.6615 26.7039 95.637 26.7284 95.6127 26.7445C95.5882 26.7363 95.5558 26.7121 95.6127 26.6796ZM95.6776 25.2172L94.9789 25.2741L94.9708 25.1684L95.6045 25.1117L96.1569 24.9735C96.1651 25.0384 96.1975 25.0629 96.2708 25.0547C96.9289 24.9411 96.8638 24.9084 97.1806 24.8842C97.2861 24.876 97.3512 24.9411 97.3594 25.0711L95.6776 25.2172ZM98.123 25.006C97.733 24.9654 97.7087 24.9329 97.4324 24.9572L97.4243 24.8678L98.0499 24.8111L98.0581 24.9005C97.993 24.9084 98.2287 24.9248 98.123 25.006ZM98.1717 24.8923L98.1636 24.8029L98.5047 24.7703L98.5129 24.8597L98.1717 24.8923ZM98.9273 24.8272L98.9192 24.7379C98.9761 24.7299 99.0573 24.6891 99.1628 24.6079C99.3334 24.5918 99.4228 24.7054 99.4391 24.8354L98.9273 24.8272ZM99.8941 24.7054L99.886 24.5997L100.3 24.5673L100.308 24.673L99.8941 24.7054ZM100.471 24.6566C100.463 24.5348 100.511 24.4618 100.617 24.4454L100.755 24.6242C100.747 24.5673 100.771 24.5348 100.82 24.5267L100.926 24.7217L100.471 24.6566ZM108.465 23.7143L108.473 23.7062V23.698C108.473 23.698 108.465 23.7062 108.465 23.7143ZM108.611 23.6086C108.676 23.568 108.709 23.5274 108.554 23.5031C108.481 23.5844 108.636 23.6086 108.473 23.6168L108.481 23.6898C108.497 23.6737 108.538 23.6492 108.571 23.625L108.481 23.698V23.7062L108.311 23.9255L108.652 23.8037H108.692L108.676 23.6005L108.611 23.6086ZM109.204 24.0718L109.139 24.0798L109.155 24.283L109.635 24.2424C109.627 24.1124 109.31 24.0718 109.204 24.0718Z" fill="#F9DC3E"/>
</svg>
