<svg width="59" height="89" viewBox="0 0 59 89" fill="none" xmlns="http://www.w3.org/2000/svg">
<g clip-path="url(#clip0)">
<path d="M14.5586 88.9906C22.5972 88.9906 29.1173 82.3508 29.1173 74.1649V59.3392H14.5586C6.52013 59.3392 0 65.9789 0 74.1649C0 82.3508 6.52013 88.9906 14.5586 88.9906Z" fill="#0ACF83"/>
<path d="M0 44.4953C0 36.3093 6.52013 29.6696 14.5586 29.6696H29.1173V59.3392H14.5586C6.52013 59.321 0 52.6813 0 44.4953Z" fill="#A259FF"/>
<path d="M0 14.8257C0 6.63973 6.52013 0 14.5586 0H29.1173V29.6696H14.5586C6.52013 29.6696 0 23.0117 0 14.8257Z" fill="#F24E1E"/>
<path d="M29.1351 0H43.6938C51.7323 0 58.2524 6.63973 58.2524 14.8257C58.2524 23.0117 51.7323 29.6514 43.6938 29.6514H29.1351V0Z" fill="#FF7262"/>
<path d="M58.2524 44.4953C58.2524 52.6813 51.7323 59.321 43.6938 59.321C35.6553 59.321 29.1351 52.6813 29.1351 44.4953C29.1351 36.3093 35.6553 29.6696 43.6938 29.6696C51.7323 29.6696 58.2524 36.3093 58.2524 44.4953Z" fill="#1ABCFE"/>
</g>
<defs>
<clipPath id="clip0">
<rect width="58.2524" height="88.9906" fill="white"/>
</clipPath>
</defs>
</svg>
