<svg width="120" height="51" viewBox="0 0 120 51" fill="none" xmlns="http://www.w3.org/2000/svg">
<g clip-path="url(#clip0)">
<path d="M71.7111 17.3249C69.0875 17.3249 67.1338 18.6042 67.1338 21.6834C67.1338 24.0032 68.4215 25.614 71.5696 25.614C74.2382 25.614 76.0508 24.0521 76.0508 21.587C76.0508 18.7937 74.429 17.3249 71.7111 17.3249ZM66.4658 39.0665C65.8447 39.823 65.226 40.6275 65.226 41.5758C65.226 43.4692 67.6569 44.039 70.9963 44.039C73.7619 44.039 77.5298 43.8463 77.5298 41.2923C77.5298 39.7741 75.7171 39.6805 73.4268 39.5381L66.4658 39.0665ZM80.5813 17.4678C81.4382 18.5572 82.3457 20.0735 82.3457 22.2518C82.3457 27.5088 78.1968 30.587 72.1893 30.587C70.6616 30.587 69.2788 30.398 68.4215 30.1615L66.8469 32.6708L71.5199 32.9548C79.7709 33.4771 84.6332 33.7145 84.6332 40.0111C84.6332 45.4589 79.8182 48.5357 71.5199 48.5357C62.8888 48.5357 59.5981 46.357 59.5981 42.6158C59.5981 40.4845 60.5521 39.35 62.2213 37.7844C60.6472 37.1237 60.1231 35.9403 60.1231 34.6605C60.1231 33.6177 60.6472 32.6712 61.5069 31.7704C62.3647 30.8719 63.3182 29.9711 64.4628 28.9292C62.1266 27.7923 60.3613 25.3295 60.3613 21.824C60.3613 16.3784 63.9861 12.6382 71.2808 12.6382C73.3321 12.6382 74.5724 12.8254 75.6693 13.1117H84.9693V17.1359L80.5813 17.4678ZM93.359 8.86123C90.6403 8.86123 89.0667 7.29699 89.0667 4.59634C89.0667 1.89942 90.6398 0.429688 93.359 0.429688C96.1246 0.429688 97.6987 1.89942 97.6987 4.59634C97.6987 7.29699 96.1251 8.86123 93.359 8.86123ZM87.2062 37.3235V33.5837L89.639 33.2532C90.307 33.1577 90.4017 33.0162 90.4017 32.3044V18.3798C90.4017 17.8603 90.2592 17.527 89.7806 17.3864L87.2062 16.4855L87.7303 12.6503H97.6026V32.3044C97.6026 33.0632 97.6486 33.1577 98.3662 33.2536L100.798 33.5842V37.3235H87.2062ZM119.656 35.4873C117.605 36.4813 114.601 37.3812 111.882 37.3812C106.207 37.3812 104.062 35.1102 104.062 29.7555V17.3482C104.062 17.0642 104.062 16.8747 103.679 16.8747H100.342V12.6582C104.539 12.1834 106.207 10.0996 106.732 4.93713H111.263V11.6643C111.263 11.9948 111.263 12.1378 111.645 12.1378H118.368V16.8738H111.263V28.1927C111.263 30.9869 111.931 32.0753 114.505 32.0753C115.842 32.0753 117.223 31.7448 118.367 31.3184L119.656 35.4869" fill="#2F2707"/>
<path d="M48.9979 23.0586L27.1935 1.40456C26.8949 1.1079 26.5403 0.872567 26.1501 0.712009C25.7599 0.55145 25.3417 0.468811 24.9193 0.468811C24.497 0.468811 24.0788 0.55145 23.6886 0.712009C23.2983 0.872567 22.9438 1.1079 22.6452 1.40456L18.1175 5.90177L23.8611 11.6057C24.5363 11.3776 25.2622 11.3419 25.9567 11.5026C26.6512 11.6633 27.2865 12.014 27.7907 12.5149C28.2975 13.0189 28.6514 13.6544 28.8119 14.3487C28.9724 15.0431 28.9329 15.7682 28.6982 16.4413L34.2327 21.939C35.5719 21.4809 37.1174 21.7775 38.1866 22.8412C38.5421 23.1941 38.8241 23.613 39.0165 24.0741C39.2089 24.5352 39.3079 25.0295 39.3079 25.5286C39.3079 26.0278 39.2089 26.522 39.0165 26.9831C38.8241 27.4442 38.5421 27.8632 38.1866 28.216C37.5612 28.8377 36.7381 29.225 35.8576 29.3119C34.977 29.3987 34.0934 29.1798 33.357 28.6924C32.6207 28.205 32.0771 27.4792 31.819 26.6386C31.5608 25.798 31.6039 24.8945 31.941 24.0819L26.7791 18.9553L26.7786 32.4469C27.1528 32.6307 27.4946 32.8734 27.7907 33.1657C28.1461 33.5187 28.4281 33.9377 28.6205 34.3989C28.8128 34.8601 28.9119 35.3544 28.9119 35.8536C28.9119 36.3528 28.8128 36.8471 28.6205 37.3083C28.4281 37.7694 28.1461 38.1885 27.7907 38.5414C26.2954 40.0265 23.8719 40.0265 22.379 38.5414C21.9329 38.0988 21.6039 37.5535 21.4213 36.9541C21.2386 36.3547 21.2078 35.7198 21.3318 35.1058C21.4557 34.4918 21.7305 33.9177 22.1317 33.4346C22.5329 32.9514 23.0481 32.5743 23.6315 32.3366V18.7193C23.1622 18.5289 22.7362 18.2468 22.379 17.8897C21.2465 16.7663 20.9741 15.1159 21.5544 13.7346L15.8929 8.1108L0.94255 22.9581C0.643803 23.2548 0.406823 23.607 0.245142 23.9947C0.0834607 24.3823 0.000244141 24.7978 0.000244141 25.2174C0.000244141 25.637 0.0834607 26.0525 0.245142 26.4401C0.406823 26.8278 0.643803 27.18 0.94255 27.4767L22.7469 49.1313C23.3501 49.7302 24.1681 50.0666 25.0211 50.0666C25.874 50.0666 26.692 49.7302 27.2952 49.1313L48.9979 27.5777C49.601 26.9783 49.9398 26.1656 49.9398 25.3182C49.9398 24.4708 49.601 23.658 48.9979 23.0586Z" fill="#DE4C36"/>
</g>
<defs>
<clipPath id="clip0">
<rect width="120" height="50.2941" fill="white"/>
</clipPath>
</defs>
</svg>
