<svg width="100" height="62" viewBox="0 0 100 62" fill="none" xmlns="http://www.w3.org/2000/svg">
<path d="M49.4573 61.2341C49.1183 61.2341 48.8019 61.1437 48.5079 60.9855L45.5017 59.1999C45.0495 58.9511 45.2756 58.8608 45.4114 58.8156C46.0216 58.6122 46.1346 58.5668 46.7675 58.2054C46.8354 58.16 46.9259 58.1827 46.9936 58.2279L49.2992 59.6067C49.3896 59.6519 49.5026 59.6519 49.5703 59.6067L58.5893 54.3852C58.6797 54.34 58.7251 54.2494 58.7251 54.1366V43.7162C58.7251 43.603 58.6797 43.5128 58.5893 43.4675L49.5703 38.2686C49.4799 38.2233 49.3669 38.2233 49.2992 38.2686L40.2802 43.4675C40.1898 43.5126 40.1445 43.6257 40.1445 43.716V54.1364C40.1445 54.227 40.1898 54.3398 40.2802 54.3852L42.7441 55.8092C44.0777 56.4872 44.914 55.6961 44.914 54.905V44.6202C44.914 44.4847 45.027 44.3489 45.1853 44.3489H46.338C46.4737 44.3489 46.6093 44.462 46.6093 44.6202V54.905C46.6093 56.6906 45.6372 57.7305 43.942 57.7305C43.4221 57.7305 43.0153 57.7305 41.8624 57.1653L39.4891 55.8092C38.9014 55.4702 38.5397 54.8372 38.5397 54.1591V43.7387C38.5397 43.0607 38.9014 42.4276 39.4891 42.0886L48.5079 36.8671C49.0731 36.5507 49.8418 36.5507 50.4068 36.8671L59.4256 42.0886C60.0133 42.4276 60.3752 43.0607 60.3752 43.7387V54.1591C60.3752 54.8372 60.0133 55.4702 59.4256 55.8092L50.4068 61.0307C50.1128 61.1664 49.7739 61.2341 49.4575 61.2341H49.4573ZM52.2376 54.0687C48.282 54.0687 47.4682 52.2604 47.4682 50.7234C47.4682 50.5876 47.5813 50.4521 47.7395 50.4521H48.9149C49.0505 50.4521 49.1635 50.5425 49.1635 50.6782C49.3444 51.8761 49.8643 52.4638 52.2603 52.4638C54.1589 52.4638 54.9729 52.0343 54.9729 51.0171C54.9729 50.4294 54.7466 50.0001 51.7856 49.7062C49.3217 49.4574 47.7847 48.9151 47.7847 46.9485C47.7847 45.1175 49.3219 44.0325 51.8986 44.0325C54.7918 44.0325 56.216 45.0272 56.3969 47.1969C56.3969 47.265 56.3742 47.3327 56.3291 47.4005C56.2837 47.4457 56.216 47.4909 56.1482 47.4909H54.9727C54.8597 47.4909 54.7466 47.4005 54.7242 47.2875C54.4529 46.0444 53.7521 45.6374 51.8986 45.6374C49.8191 45.6374 49.5703 46.3608 49.5703 46.9032C49.5703 47.5587 49.8643 47.7621 52.6671 48.1238C55.4474 48.4856 56.7585 49.0054 56.7585 50.9493C56.7359 52.9385 55.1085 54.0687 52.2376 54.0687Z" fill="#539E43"/>
<path d="M21.4738 20.4793C21.4738 20.0725 21.2477 19.688 20.8861 19.4846L11.302 13.9693C11.1436 13.8788 10.9629 13.8336 10.7822 13.8109H10.6916C10.5109 13.8109 10.33 13.8788 10.1718 13.9693L0.58771 19.4846C0.225892 19.688 0 20.0723 0 20.4793L0.022687 35.3074C0.022687 35.5108 0.135731 35.7142 0.316444 35.8048C0.497353 35.9178 0.723245 35.9178 0.881662 35.8048L6.57785 32.5498C6.93947 32.3464 7.16556 31.9621 7.16556 31.5553V24.6158C7.16556 24.209 7.39145 23.8247 7.75327 23.6213L10.1718 22.2198C10.3527 22.1067 10.5561 22.0614 10.7595 22.0614C10.9629 22.0614 11.1663 22.1067 11.3247 22.2198L13.7432 23.6213C14.105 23.8247 14.3309 24.2088 14.3309 24.6158V31.5553C14.3309 31.9621 14.557 32.3464 14.9186 32.5498L20.6148 35.8048C20.7957 35.9178 21.0216 35.9178 21.2025 35.8048C21.3834 35.7142 21.4965 35.5108 21.4965 35.3074L21.4738 20.4793ZM67.5406 0.0679142C67.3599 -0.0226381 67.1338 -0.0226381 66.9754 0.0679142C66.7947 0.180958 66.6817 0.361671 66.6817 0.565071V15.2578C66.6817 15.3933 66.614 15.5289 66.4783 15.6194C66.3427 15.6871 66.207 15.6871 66.0715 15.6194L63.6754 14.2406C63.4998 14.1406 63.3011 14.088 63.099 14.088C62.8968 14.088 62.6982 14.1406 62.5225 14.2406L52.9385 19.7786C52.5768 19.982 52.3507 20.3663 52.3507 20.7731V31.8263C52.3507 32.2331 52.5768 32.6176 52.9385 32.821L62.5225 38.359C62.6982 38.459 62.8968 38.5116 63.099 38.5116C63.3011 38.5116 63.4998 38.459 63.6754 38.359L73.2595 32.821C73.6211 32.6176 73.8472 32.2333 73.8472 31.8263V4.27224C73.8472 3.84275 73.6211 3.45864 73.2595 3.25504L67.5408 0.0679142H67.5406ZM66.6592 28.1872C66.6592 28.3003 66.614 28.3906 66.5234 28.4358L63.246 30.3345C63.2002 30.3568 63.1499 30.3684 63.099 30.3684C63.048 30.3684 62.9978 30.3568 62.952 30.3345L59.6745 28.4358C59.584 28.3906 59.5388 28.2776 59.5388 28.1872V24.3897C59.5388 24.2767 59.584 24.1863 59.6745 24.1411L62.952 22.2423C62.9978 22.2199 63.048 22.2083 63.099 22.2083C63.1499 22.2083 63.2002 22.2199 63.246 22.2423L66.5234 24.1411C66.614 24.1861 66.6592 24.2993 66.6592 24.3897V28.1872ZM99.4348 24.2993C99.7966 24.0959 100 23.7116 100 23.3046V20.6149C100 20.2081 99.7739 19.8238 99.4348 19.6204L89.9186 14.1051C89.7429 14.0051 89.5443 13.9525 89.3422 13.9525C89.1401 13.9525 88.9415 14.0051 88.7658 14.1051L79.1818 19.6428C78.82 19.8462 78.5941 20.2306 78.5941 20.6376V31.6908C78.5941 32.0976 78.82 32.4819 79.1818 32.6853L88.698 38.1102C89.0598 38.3136 89.4891 38.3136 89.8282 38.1102L95.5921 34.9008C95.773 34.8102 95.886 34.6068 95.886 34.4035C95.886 34.2001 95.773 33.9966 95.5921 33.9061L85.9628 28.3681C85.7821 28.2553 85.6691 28.0744 85.6691 27.871V24.4126C85.6691 24.2092 85.7821 24.0058 85.9628 23.9152L88.9693 22.1973C89.0573 22.1419 89.1591 22.1125 89.2631 22.1125C89.3671 22.1125 89.469 22.1419 89.557 22.1973L92.5632 23.9152C92.7441 24.0283 92.8571 24.209 92.8571 24.4126V27.125C92.8571 27.3284 92.9702 27.5318 93.1509 27.6222C93.3318 27.7352 93.5577 27.7352 93.7386 27.6222L99.4348 24.2993Z" fill="#333333"/>
<path d="M89.1961 23.7794C89.2297 23.7573 89.2689 23.7455 89.3091 23.7455C89.3492 23.7455 89.3885 23.7573 89.422 23.7794L91.2531 24.8418C91.321 24.8868 91.3661 24.9546 91.3661 25.0452V27.1699C91.3661 27.2603 91.321 27.3282 91.2531 27.3733L89.422 28.4357C89.3885 28.4578 89.3492 28.4696 89.3091 28.4696C89.2689 28.4696 89.2297 28.4578 89.1961 28.4357L87.3651 27.3733C87.2972 27.3282 87.252 27.2603 87.252 27.1699V25.0452C87.252 24.9546 87.2972 24.8868 87.3651 24.8418L89.1961 23.7794Z" fill="#539E43"/>
<mask id="mask0" mask-type="alpha" maskUnits="userSpaceOnUse" x="26" y="13" width="22" height="26">
<path d="M37.4995 14.1503C37.3239 14.0503 37.1252 13.9977 36.9231 13.9977C36.721 13.9977 36.5224 14.0503 36.3468 14.1503L26.8306 19.6426C26.4688 19.846 26.2654 20.2304 26.2654 20.6372V31.6454C26.2654 32.0522 26.4914 32.4365 26.8306 32.6399L36.3468 38.1327C36.5224 38.2327 36.721 38.2852 36.9231 38.2852C37.1252 38.2852 37.3239 38.2327 37.4995 38.1327L47.0159 32.6399C47.3775 32.4365 47.5811 32.0522 47.5811 31.6454V20.6374C47.5811 20.2306 47.3548 19.8462 47.0159 19.6428L37.4995 14.1503Z" fill="white"/>
</mask>
<g mask="url(#mask0)">
<path d="M37.4995 14.1503C37.3239 14.0503 37.1252 13.9977 36.9231 13.9977C36.721 13.9977 36.5224 14.0503 36.3468 14.1503L26.8306 19.6426C26.4688 19.846 26.2654 20.2304 26.2654 20.6372V31.6454C26.2654 32.0522 26.4914 32.4365 26.8306 32.6399L36.3468 38.1327C36.5224 38.2327 36.721 38.2852 36.9231 38.2852C37.1252 38.2852 37.3239 38.2327 37.4995 38.1327L47.0159 32.6399C47.3775 32.4365 47.5811 32.0522 47.5811 31.6454V20.6374C47.5811 20.2306 47.3548 19.8462 47.0159 19.6428L37.4995 14.1503Z" fill="url(#paint0_linear)"/>
<path d="M47.0388 19.6427L37.4775 14.1502C37.3835 14.1027 37.285 14.0648 37.1835 14.0371L26.4693 32.3916C26.558 32.5 26.6652 32.5918 26.7859 32.6629L36.3472 38.1557C36.6185 38.3139 36.9349 38.3591 37.2287 38.2685L47.2876 19.869C47.2197 19.7787 47.1291 19.7106 47.0388 19.6429V19.6427Z" fill="url(#paint1_linear)"/>
<path fill-rule="evenodd" clip-rule="evenodd" d="M47.0601 32.6401C47.3314 32.4819 47.5348 32.2106 47.6254 31.9169L37.1368 14.0145C36.8656 13.9693 36.5716 13.9918 36.3233 14.15L26.8296 19.6203L37.069 38.2911C37.2179 38.2667 37.3625 38.2211 37.4985 38.1556L47.0599 32.6403L47.0601 32.6401Z" fill="url(#paint2_linear)"/>
<path fill-rule="evenodd" clip-rule="evenodd" d="M47.0617 32.6401L37.5229 38.1329C37.3883 38.2016 37.2432 38.2474 37.0935 38.2684L37.2744 38.6076L47.8528 32.4821V32.3464L47.5815 31.8942C47.5364 32.2106 47.333 32.4819 47.0617 32.6401Z" fill="url(#paint3_linear)"/>
<path fill-rule="evenodd" clip-rule="evenodd" d="M47.0617 32.6401L37.5229 38.1329C37.3883 38.2016 37.2432 38.2474 37.0935 38.2684L37.2744 38.6076L47.8528 32.4821V32.3464L47.5815 31.8942C47.5364 32.2106 47.333 32.4819 47.0617 32.6401Z" fill="url(#paint4_linear)"/>
</g>
<defs>
<linearGradient id="paint0_linear" x1="40.8001" y1="18.2449" x2="30.3695" y2="34.6345" gradientUnits="userSpaceOnUse">
<stop stop-color="#41873F"/>
<stop offset="0.3288" stop-color="#418B3D"/>
<stop offset="0.6352" stop-color="#419637"/>
<stop offset="0.9319" stop-color="#3FA92D"/>
<stop offset="1" stop-color="#3FAE2A"/>
</linearGradient>
<linearGradient id="paint1_linear" x1="35.4788" y1="27.4308" x2="61.6019" y2="13.2381" gradientUnits="userSpaceOnUse">
<stop offset="0.1376" stop-color="#41873F"/>
<stop offset="0.4032" stop-color="#54A044"/>
<stop offset="0.7136" stop-color="#66B848"/>
<stop offset="0.9081" stop-color="#6CC04A"/>
</linearGradient>
<linearGradient id="paint2_linear" x1="25.9169" y1="26.1418" x2="47.9371" y2="26.1418" gradientUnits="userSpaceOnUse">
<stop offset="0.09192" stop-color="#6CC04A"/>
<stop offset="0.2864" stop-color="#66B848"/>
<stop offset="0.5968" stop-color="#54A044"/>
<stop offset="0.8624" stop-color="#41873F"/>
</linearGradient>
<linearGradient id="paint3_linear" x1="25.9187" y1="35.2693" x2="47.9386" y2="35.2693" gradientUnits="userSpaceOnUse">
<stop offset="0.09192" stop-color="#6CC04A"/>
<stop offset="0.2864" stop-color="#66B848"/>
<stop offset="0.5968" stop-color="#54A044"/>
<stop offset="0.8624" stop-color="#41873F"/>
</linearGradient>
<linearGradient id="paint4_linear" x1="51.1466" y1="17.7244" x2="45.568" y2="46.9558" gradientUnits="userSpaceOnUse">
<stop stop-color="#41873F"/>
<stop offset="0.3288" stop-color="#418B3D"/>
<stop offset="0.6352" stop-color="#419637"/>
<stop offset="0.9319" stop-color="#3FA92D"/>
<stop offset="1" stop-color="#3FAE2A"/>
</linearGradient>
</defs>
</svg>
