<svg width="100" height="62" viewBox="0 0 100 62" fill="none" xmlns="http://www.w3.org/2000/svg">
<path d="M83.6785 19.2002C83.5224 15.766 83.9907 12.7221 82.4297 10.1464C78.6833 3.74637 69.3174 0 50.5855 0V0.546347H50.1953H50.5855V0C31.8537 0 22.0194 3.74637 18.2731 10.2245C16.7901 12.8782 16.9462 15.844 16.7121 19.2782C16.556 22.0099 15.3072 24.8978 15.8535 28.0197C16.4779 32.0783 16.7121 36.1369 17.3365 39.8833C17.8048 42.9272 22.0194 45.5028 22.4097 48.3907C23.5024 56.3517 31.7756 60.02 50.5075 60.02V60.6444H50.0392H50.1172H50.5855V60.02C69.3174 60.02 77.2784 56.3517 78.2931 48.3907C78.6833 45.4248 82.5858 42.9272 83.0541 39.8833C83.6785 36.1369 83.9126 32.0783 84.537 28.0197C85.0834 24.8978 83.8346 21.9319 83.6785 19.2002Z" fill="#EFCCA3"/>
<path d="M50.2733 22.0099C53.6294 22.0879 55.9709 24.1953 58.1563 26.1465C60.7319 28.4099 65.1027 29.9709 66.8978 31.9222C68.693 33.8734 71.0344 35.8246 71.893 38.8686C72.7515 41.9125 72.9857 45.815 72.9857 46.8296C72.9857 47.8443 73.532 47.6101 75.093 46.8296C78.7613 45.0345 82.8199 40.1954 82.8199 40.1954C82.3516 43.2393 78.3711 45.9711 77.9808 48.8589C77.0442 56.8199 69.3173 60.6444 50.1952 60.6444H50.1172H50.5855" fill="#CCAC8D"/>
<path d="M62.6042 15.922C63.3066 18.3416 65.8042 26.5368 60.9651 23.805C60.9651 23.805 62.9944 24.9758 64.2432 29.4246C65.5701 33.8734 68.7701 34.4198 68.7701 34.4198C68.7701 34.4198 73.9994 35.4344 77.9019 32.0783C81.1799 29.2685 81.7263 24.2733 80.3214 20.4489C78.9165 16.7025 76.4189 15.5318 72.7506 14.7513C69.0823 13.8928 61.7456 13.1903 62.6042 15.922Z" fill="#CCAC8D"/>
<path d="M71.8928 31.6881C75.6861 31.6881 78.7611 28.613 78.7611 24.8197C78.7611 21.0264 75.6861 17.9514 71.8928 17.9514C68.0995 17.9514 65.0244 21.0264 65.0244 24.8197C65.0244 28.613 68.0995 31.6881 71.8928 31.6881Z" fill="black"/>
<path d="M70.0976 23.571C71.089 23.571 71.8927 22.7672 71.8927 21.7758C71.8927 20.7844 71.089 19.9807 70.0976 19.9807C69.1061 19.9807 68.3024 20.7844 68.3024 21.7758C68.3024 22.7672 69.1061 23.571 70.0976 23.571Z" fill="white"/>
<path d="M61.4336 24.5075C61.4336 24.5075 67.5995 28.7222 70.9556 32.8588C74.3117 36.9954 74.2337 37.7759 74.2337 37.7759L71.8142 38.8686C71.8142 38.8686 68.38 32.3905 64.1653 29.971C59.8726 27.5515 59.4043 25.5222 59.4043 25.5222L61.4336 24.5075Z" fill="#EFCCA3"/>
<path d="M50.5067 22.0099C47.1506 22.0879 44.653 24.1953 42.3896 26.1465C39.8139 28.4099 35.2871 29.9709 33.4919 31.9222C31.6968 33.8734 29.2773 35.8246 28.4187 38.8686C27.5602 41.9125 27.248 45.815 27.248 46.8296C27.248 47.8443 27.4041 47.9223 25.1407 46.8296C21.4723 45.1125 17.4138 40.1954 17.4138 40.1954C17.8821 43.2393 21.8626 45.9711 22.2528 48.8589C23.3455 56.8199 31.0724 60.6444 50.1945 60.6444H50.2726H50.5848" fill="#CCAC8D"/>
<path d="M68.6148 35.2003C64.8684 30.5954 58.8586 26.3027 50.5073 26.3027H50.4293C42.078 26.3027 36.0682 30.5954 32.3218 35.2003C28.4193 39.9614 28.7315 41.8345 28.7315 46.3614C28.7315 62.7518 34.5072 58.0688 38.3316 60.0981C42.2341 62.0493 46.2927 61.4249 50.4293 61.4249H50.5073C54.722 61.4249 58.7025 61.9713 62.605 60.0201C66.4294 58.0688 72.2051 62.9079 72.2051 46.5175C72.2831 41.9906 72.5173 39.9614 68.6148 35.2003Z" fill="#56332B"/>
<path d="M50.1173 30.3612C50.1173 30.3612 49.5709 37.932 48.4782 39.415L50.5075 38.9467L50.1173 30.3612Z" fill="#442823"/>
<path d="M50.6637 30.3612C50.6637 30.3612 51.21 37.932 52.3027 39.415L50.2734 38.9467L50.6637 30.3612Z" fill="#442823"/>
<path d="M44.1077 28.566C43.3272 26.7709 46.137 23.8831 50.5858 23.805C55.0346 23.805 57.8444 26.6929 57.0639 28.566C56.2834 30.4392 53.4737 30.9856 50.5858 31.0636C47.776 30.9856 44.8882 30.4392 44.1077 28.566Z" fill="#56332B"/>
<path d="M50.5846 30.3612C50.5846 30.049 53.2382 29.9709 54.6431 29.0344C54.6431 29.0344 51.7553 29.9709 51.1309 29.5807C50.5065 29.2685 50.3504 28.3319 50.3504 28.3319C50.3504 28.3319 50.1163 29.2685 49.648 29.5807C49.1016 29.8929 45.8235 29.0344 45.8235 29.0344C45.8235 29.0344 50.1943 30.127 50.1943 30.3612C50.1943 30.5953 50.1163 31.3758 50.1163 31.9222C50.1163 33.8734 50.1163 38.7125 50.4285 39.1027C50.8968 39.8052 50.7407 33.8734 50.7407 31.9222C50.6626 31.2978 50.6626 30.6734 50.5846 30.3612Z" fill="black"/>
<path d="M50.7408 40.8199C52.0676 40.8199 54.4091 41.7565 56.5165 43.2394C54.4872 40.976 52.0676 39.415 50.7408 39.415C49.3359 39.415 46.37 41.1321 44.2627 43.6296C46.4481 41.9126 49.2579 40.8199 50.7408 40.8199Z" fill="#7F4A41"/>
<path d="M50.1957 54.6346C47.2298 54.6346 44.342 53.698 41.6883 52.9956C41.142 52.8395 40.5956 53.2297 40.0493 53.0736C35.1322 51.5126 31.1516 48.859 28.7321 45.5028C28.7321 45.737 28.7321 46.0492 28.7321 46.2833C28.7321 62.6737 34.5078 58.0688 38.3322 60.02C42.2347 61.9713 46.2932 61.3469 50.4299 61.3469H50.5079C54.7226 61.3469 58.7031 61.8932 62.6056 59.942C66.43 57.9907 72.2057 62.7518 72.2057 46.3614C72.2057 45.737 72.2057 45.1126 72.2837 44.5662C70.0203 48.2346 65.8836 51.1224 60.7324 52.8395C60.2641 52.9956 59.1714 52.6053 58.7031 52.6834C55.8933 53.62 53.3957 54.6346 50.1957 54.6346Z" fill="#442823"/>
<path d="M42.7809 45.815C42.7809 45.815 40.8296 51.6687 42.1565 54.2444L40.3613 53.4639C40.3613 53.4639 41.6882 47.5321 42.7809 45.815Z" fill="#442823"/>
<path d="M58.2341 45.815C58.2341 45.815 60.1853 51.6687 58.8585 54.2444L60.6536 53.4639C60.6536 53.4639 59.2487 47.5321 58.2341 45.815Z" fill="#442823"/>
<path d="M37.7854 15.922C37.0829 18.3416 34.5853 26.5368 39.4244 23.805C39.4244 23.805 37.3951 24.9758 36.1463 29.4246C34.8975 33.8734 31.6195 34.4198 31.6195 34.4198C31.6195 34.4198 26.3901 35.4344 22.4877 32.0783C19.2096 29.2685 18.6633 24.2733 20.0681 20.4489C21.473 16.6245 23.9706 15.5318 27.6389 14.7513C31.3073 13.8928 38.5659 13.1903 37.7854 15.922Z" fill="#CCAC8D"/>
<path d="M50.5075 39.415C52.6148 39.415 59.1709 43.9418 59.249 49.4834C59.249 49.4053 59.249 49.3273 59.249 49.1712C59.249 43.3955 53.9416 38.7906 50.5075 38.7906C47.0733 38.7906 41.7659 43.4736 41.7659 49.1712C41.7659 49.2492 41.7659 49.3273 41.7659 49.4834C41.844 43.9418 48.4001 39.415 50.5075 39.415Z" fill="black"/>
<path d="M52.2114 28.6085C52.5453 28.5224 52.6851 27.9451 52.5237 27.319C52.3622 26.6929 51.9607 26.2552 51.6268 26.3413C51.2928 26.4274 51.153 27.0047 51.3145 27.6308C51.4759 28.2569 51.8775 28.6946 52.2114 28.6085Z" fill="#331712"/>
<path d="M48.1985 28.5969C48.5278 28.6991 48.9501 28.2813 49.1417 27.6637C49.3333 27.0462 49.2216 26.4627 48.8923 26.3605C48.5629 26.2584 48.1406 26.6762 47.949 27.2937C47.7574 27.9113 47.8691 28.4947 48.1985 28.5969Z" fill="#331712"/>
<path d="M28.8882 31.6881C32.6815 31.6881 35.7565 28.613 35.7565 24.8197C35.7565 21.0264 32.6815 17.9514 28.8882 17.9514C25.0949 17.9514 22.0198 21.0264 22.0198 24.8197C22.0198 28.613 25.0949 31.6881 28.8882 31.6881Z" fill="black"/>
<path d="M30.6838 23.571C31.6752 23.571 32.4789 22.7672 32.4789 21.7758C32.4789 20.7844 31.6752 19.9807 30.6838 19.9807C29.6924 19.9807 28.8887 20.7844 28.8887 21.7758C28.8887 22.7672 29.6924 23.571 30.6838 23.571Z" fill="white"/>
<path d="M52.5363 24.8978C52.5363 24.8198 50.7412 25.6783 50.2729 25.7563C49.8046 25.6783 48.0095 24.8198 48.0095 24.8978C48.0095 24.8978 49.4924 24.8978 50.2729 24.8978C51.0534 24.8978 52.5363 24.8978 52.5363 24.8978Z" fill="#7F4A41"/>
<path d="M38.8777 24.5075C38.8777 24.5075 32.7118 28.7222 29.3557 32.8588C25.9996 36.9954 26.0776 37.7759 26.0776 37.7759L28.4971 38.8686C28.4971 38.8686 31.9313 32.3905 36.146 29.971C40.3607 27.5515 40.907 25.5222 40.907 25.5222L38.8777 24.5075Z" fill="#EFCCA3"/>
<path d="M25.3759 12.0197C25.3759 12.0197 23.2686 17.7953 18.5856 20.2148C18.5856 20.2148 25.9223 19.3563 25.3759 12.0197Z" fill="#CCAC8D"/>
<path d="M74.6238 12.0197C74.6238 12.0197 76.7311 17.7953 81.4141 20.2148C81.4141 20.2148 74.0774 19.3563 74.6238 12.0197Z" fill="#CCAC8D"/>
<path d="M61.2781 22.7905C61.2781 22.7905 56.6732 17.9514 50.5073 17.7953C50.4293 17.7953 50.6634 17.7953 50.5854 17.7953C50.5073 17.7953 50.6634 17.7953 50.6634 17.7953C44.4194 17.9514 39.8926 22.7905 39.8926 22.7905C45.278 19.0441 49.8829 19.1222 50.6634 19.1222C50.5853 19.1222 55.8927 19.0441 61.2781 22.7905Z" fill="#CCAC8D"/>
<path d="M55.893 12.6441C55.893 12.6441 53.5515 9.36598 50.4295 9.28793H50.5076H50.5856C48.2441 9.36598 45.2002 12.6441 45.2002 12.6441C47.8539 10.0684 50.5856 10.1465 50.5856 10.1465C50.5856 10.1465 53.1612 10.0684 55.893 12.6441Z" fill="#CCAC8D"/>
<path d="M28.8869 36.6051C28.8869 36.6051 25.2186 38.4003 22.5649 37.3076H22.4868C20.1454 35.9807 18.9746 32.0002 18.9746 32.0002C18.9746 32.0002 21.3161 39.0247 28.8869 36.6051Z" fill="#CCAC8D"/>
<path d="M71.6585 36.6051C71.6585 36.6051 75.3268 38.4003 77.9805 37.3076C81.1025 35.9807 81.5708 32.0002 81.5708 32.0002C81.5708 32.0002 79.2293 39.0247 71.6585 36.6051Z" fill="#CCAC8D"/>
<path d="M33.1022 11.6293C35.1315 11.2391 38.4876 11.1611 41.1413 12.0196C44.4975 13.1903 41.7657 17.4831 42.4682 17.7172C43.1706 17.9514 44.1072 14.7513 50.3512 15.0635C56.6732 15.3757 57.3756 18.1855 58.2342 17.7172C59.0927 17.2489 57.3756 9.91226 66.8196 11.6293C66.8196 11.6293 56.9073 8.97567 57.3756 16.1562C57.3756 16.1562 51.678 11.7854 43.717 15.6879C43.795 15.6879 45.8243 8.97567 33.1022 11.6293Z" fill="#CCAC8D"/>
<path d="M67.6774 11.6293C67.8335 11.6293 67.9116 11.7074 67.9896 11.7074C68.0677 11.7074 67.9116 11.6293 67.6774 11.6293Z" fill="#CCAC8D"/>
<path d="M30.3711 2.02933C30.3711 2.02933 21.9417 12.6441 20.6929 16.7026C19.4441 20.8392 18.5076 37.776 17.4149 40.1955L13.5124 23.4929L20.6929 6.0879L30.3711 2.02933Z" fill="#CCAC8D"/>
<path d="M70.0195 2.02933C70.0195 2.02933 78.4489 12.6441 79.6977 16.7026C80.9465 20.8392 81.883 37.776 82.9757 40.1955L86.8782 23.4929L79.6977 6.0879L70.0195 2.02933Z" fill="#CCAC8D"/>
<path d="M69.63 2.02928C69.63 2.02928 78.6837 9.60008 81.3374 18.3416C83.9911 27.0831 82.8984 37.6979 84.9277 39.0247C87.8155 40.8979 91.0936 29.7368 92.1863 28.5661C93.9034 26.6929 99.601 21.9319 99.9912 21.0733C100.381 20.2148 88.4399 7.18054 83.2106 4.60491C76.8886 1.63904 69.0837 1.40489 69.63 2.02928Z" fill="#56332B"/>
<path d="M77.3568 6.71225C77.3568 6.71225 88.0495 20.3709 87.8934 37.3857L92.1861 28.6441C92.1081 28.6441 88.3617 17.4831 77.3568 6.71225Z" fill="#442823"/>
<path d="M30.3706 2.02928C30.3706 2.02928 21.3168 9.60008 18.6632 18.3416C16.0095 27.0831 17.1022 37.6979 15.0729 39.0247C12.1851 40.8979 8.90697 29.7368 7.81428 28.5661C6.0972 26.6929 0.399586 21.9319 0.00933905 21.0733C-0.380908 20.2148 11.5607 7.18054 16.79 4.60491C23.112 1.63904 30.9169 1.40489 30.3706 2.02928Z" fill="#56332B"/>
<path d="M22.6436 6.71225C22.6436 6.71225 11.9508 20.3709 12.1069 37.3857L7.89227 28.6441C7.89227 28.6441 11.6386 17.4831 22.6436 6.71225Z" fill="#442823"/>
<path d="M16.8685 37.6979C16.8685 37.6979 17.649 41.9125 18.8978 43.2394C20.1465 44.5662 19.288 42.2247 19.288 42.2247C19.288 42.2247 17.9612 41.5223 18.1953 36.1369C18.4295 30.7515 16.8685 37.6979 16.8685 37.6979Z" fill="#CCAC8D"/>
<path d="M83.4446 37.6979C83.4446 37.6979 82.6641 41.9125 81.4153 43.2394C80.1665 44.5662 81.0251 42.2247 81.0251 42.2247C81.0251 42.2247 82.3519 41.5223 82.1178 36.1369C81.8836 30.7515 83.4446 37.6979 83.4446 37.6979Z" fill="#CCAC8D"/>
<path d="M42.3906 35.1223C42.7355 35.1223 43.015 34.8428 43.015 34.4979C43.015 34.1531 42.7355 33.8735 42.3906 33.8735C42.0458 33.8735 41.7662 34.1531 41.7662 34.4979C41.7662 34.8428 42.0458 35.1223 42.3906 35.1223Z" fill="#442823"/>
<path d="M38.8002 38.8687C39.145 38.8687 39.4246 38.5891 39.4246 38.2443C39.4246 37.8994 39.145 37.6199 38.8002 37.6199C38.4553 37.6199 38.1758 37.8994 38.1758 38.2443C38.1758 38.5891 38.4553 38.8687 38.8002 38.8687Z" fill="#442823"/>
<path d="M37.6296 35.1223C37.9744 35.1223 38.254 34.8427 38.254 34.4979C38.254 34.1531 37.9744 33.8735 37.6296 33.8735C37.2847 33.8735 37.0052 34.1531 37.0052 34.4979C37.0052 34.8427 37.2847 35.1223 37.6296 35.1223Z" fill="#442823"/>
<path d="M57.6101 35.1223C57.9549 35.1223 58.2345 34.8427 58.2345 34.4979C58.2345 34.1531 57.9549 33.8735 57.6101 33.8735C57.2652 33.8735 56.9857 34.1531 56.9857 34.4979C56.9857 34.8427 57.2652 35.1223 57.6101 35.1223Z" fill="#442823"/>
<path d="M61.2009 38.8687C61.5457 38.8687 61.8253 38.5891 61.8253 38.2443C61.8253 37.8994 61.5457 37.6199 61.2009 37.6199C60.856 37.6199 60.5765 37.8994 60.5765 38.2443C60.5765 38.5891 60.856 38.8687 61.2009 38.8687Z" fill="#442823"/>
<path d="M62.3711 35.1223C62.7159 35.1223 62.9955 34.8428 62.9955 34.4979C62.9955 34.1531 62.7159 33.8735 62.3711 33.8735C62.0263 33.8735 61.7467 34.1531 61.7467 34.4979C61.7467 34.8428 62.0263 35.1223 62.3711 35.1223Z" fill="#442823"/>
</svg>
