<svg width="100" height="89" viewBox="0 0 100 89" fill="none" xmlns="http://www.w3.org/2000/svg">
<path d="M82.2204 28.8372C81.156 28.4721 80.0826 28.1339 79.0012 27.8228C79.1806 27.0941 79.3464 26.3621 79.4987 25.6273C81.9354 13.7985 80.3422 4.2692 74.9013 1.13231C69.6848 -1.87623 61.1531 1.26065 52.5363 8.759C51.6873 9.49956 50.857 10.2615 50.0465 11.044C49.5036 10.5236 48.9512 10.0134 48.3895 9.51357C39.359 1.49521 30.3072 -1.88332 24.8721 1.26287C19.6605 4.27982 18.1168 13.2386 20.3106 24.4487C20.5289 25.5589 20.7753 26.6633 21.0497 27.7609C19.7689 28.1247 18.5319 28.5124 17.3485 28.9248C6.76149 32.6158 0 38.401 0 44.4013C0 50.5989 7.25805 56.8152 18.2859 60.584C19.1801 60.8882 20.0817 61.1701 20.9899 61.4293C20.6949 62.6118 20.4329 63.8023 20.2044 64.9995C18.1128 76.0149 19.7463 84.7612 24.9442 87.7596C30.313 90.8553 39.3236 87.6733 48.0979 80.0037C48.7914 79.3974 49.4875 78.7543 50.1845 78.0803C51.0625 78.9274 51.9639 79.7498 52.8877 80.5467C61.3867 87.8601 69.7804 90.8133 74.9739 87.807C80.3378 84.7019 82.0806 75.3059 79.8173 63.874C79.6447 63.0009 79.4433 62.1091 79.2176 61.2009C79.8505 61.0142 80.4714 60.8212 81.0773 60.6203C92.5415 56.8222 100 50.6817 100 44.4013C100 38.3793 93.0208 32.5552 82.2204 28.8372Z" fill="#53C1DE"/>
<path d="M79.7325 56.5656C79.186 56.7466 78.6248 56.9214 78.053 57.0909C76.7873 53.0844 75.079 48.8238 72.9892 44.4225C74.9838 40.1253 76.6257 35.9196 77.8561 31.9387C78.8788 32.2352 79.8719 32.5473 80.8287 32.877C90.0827 36.0621 95.7271 40.7723 95.7271 44.4013C95.7271 48.2671 89.6309 53.2857 79.733 56.5656H79.7325ZM75.6255 64.7039C76.6262 69.7588 76.7691 74.3292 76.1062 77.902C75.5105 81.1123 74.3129 83.2526 72.8321 84.1098C69.6806 85.934 62.9408 83.5628 55.6731 77.3085C54.8397 76.5915 54.0002 75.8259 53.1584 75.016C55.9762 71.934 58.7923 68.351 61.5406 64.3724C66.3751 63.9435 70.9424 63.2421 75.0843 62.2848C75.2879 63.108 75.4693 63.9148 75.6255 64.7039ZM34.0911 83.7947C31.0122 84.8821 28.56 84.9131 27.0778 84.0585C23.9232 82.2395 22.6124 75.2161 24.4008 65.7961C24.6134 64.6829 24.8569 63.5757 25.131 62.476C29.2269 63.3819 33.761 64.0338 38.607 64.4268C41.3735 68.3201 44.2709 71.8986 47.1909 75.0324C46.5704 75.6327 45.9351 76.2177 45.2857 76.7867C41.4058 80.1785 37.5179 82.5843 34.0916 83.7947H34.0911ZM19.6667 56.5417C14.7905 54.875 10.7637 52.7091 8.00341 50.3458C5.52329 48.2215 4.27084 46.1127 4.27084 44.4013C4.27084 40.7603 9.69975 36.1156 18.7541 32.9588C19.8906 32.5643 21.0383 32.2032 22.1959 31.8759C23.4475 35.9461 25.089 40.2018 27.0699 44.5053C25.0633 48.873 23.3984 53.1964 22.1353 57.3144C21.3062 57.0771 20.4831 56.8194 19.6667 56.5417ZM24.5021 23.6283C22.6226 14.0233 23.8706 6.77814 27.0114 4.9601C30.3572 3.02344 37.7546 5.78503 45.5517 12.708C46.05 13.1506 46.5506 13.614 47.052 14.0933C44.147 17.2129 41.2761 20.7645 38.5335 24.6351C33.8304 25.071 29.3283 25.7712 25.1894 26.709C24.9345 25.6879 24.7053 24.6605 24.5021 23.6278V23.6283ZM67.6373 34.2794C66.6597 32.5908 65.6459 30.9234 64.5965 29.2785C67.7873 29.6812 70.8441 30.2167 73.7146 30.8722C72.8529 33.6342 71.7788 36.5224 70.514 39.4831C69.5898 37.7296 68.6307 35.9947 67.6373 34.2794ZM50.0468 17.1461C52.0171 19.2805 53.9905 21.6642 55.9315 24.2501C51.9941 24.064 48.05 24.0631 44.1125 24.2474C46.0553 21.6854 48.0455 19.3053 50.0468 17.1461ZM32.3434 34.3087C31.3624 36.0102 30.4213 37.7345 29.5208 39.48C28.2767 36.5294 27.2124 33.6284 26.3432 30.827C29.1964 30.1884 32.239 29.6666 35.4091 29.2705C34.3479 30.9257 33.3257 32.6055 32.3434 34.3087ZM35.5002 59.837C32.2253 59.4714 29.1366 58.9762 26.2843 58.3553C27.1672 55.5043 28.255 52.5409 29.5256 49.5271C30.43 51.2739 31.3752 52.9991 32.3607 54.7015C33.3662 56.438 34.4131 58.1504 35.5002 59.837ZM50.165 71.9584C48.1402 69.7734 46.1208 67.357 44.1483 64.7579C46.0629 64.8331 48.015 64.8712 49.999 64.8712C52.0374 64.8712 54.0524 64.8256 56.0355 64.7371C54.0883 67.3836 52.122 69.8035 50.165 71.9584ZM70.5547 49.3735C71.8912 52.4201 73.018 55.3676 73.9128 58.1703C71.0132 58.8319 67.8829 59.3648 64.5845 59.7604C65.6415 58.0848 66.6651 56.3882 67.6546 54.6719C68.6605 52.9275 69.6274 51.1609 70.5547 49.3735ZM63.9539 52.5378C62.4391 55.1693 60.8391 57.7508 59.1565 60.2782C56.1895 60.4902 53.1235 60.5995 49.999 60.5995C46.8873 60.5995 43.8602 60.5026 40.9451 60.3136C39.2188 57.7921 37.5886 55.2061 36.0579 52.5613C34.5343 49.9305 33.1112 47.2428 31.7916 44.504C33.1078 41.7643 34.5266 39.0752 36.045 36.4422V36.4431C37.5629 33.8096 39.1803 31.2347 40.8937 28.724C43.8677 28.4991 46.917 28.3814 49.9994 28.3814C53.0956 28.3814 56.1488 28.5 59.122 28.7266C60.818 31.2335 62.4251 33.7994 63.9401 36.4197C65.4638 39.0468 66.9015 41.7227 68.2511 44.4433C66.9154 47.1917 65.4822 49.8915 63.9543 52.5378H63.9539ZM72.7666 4.83308C76.115 6.76442 77.4175 14.5522 75.3135 24.7652C75.1756 25.4305 75.0257 26.0933 74.8639 26.7532C70.7153 25.796 66.21 25.0834 61.4932 24.6409C58.7453 20.7282 55.8983 17.1704 53.0403 14.0911C53.7892 13.369 54.556 12.6657 55.3398 11.9818C62.7227 5.55667 69.6226 3.0199 72.7666 4.83308Z" fill="white"/>
<path d="M50.0005 35.4718C54.9325 35.4718 58.9301 39.4699 58.9301 44.4014C58.9301 49.3334 54.9325 53.3315 50.0005 53.3315C45.0691 53.3315 41.071 49.3334 41.071 44.4014C41.071 39.4699 45.0691 35.4718 50.0005 35.4718Z" fill="#53C1DE"/>
</svg>
