<svg width="100" height="95" viewBox="0 0 100 95" fill="none" xmlns="http://www.w3.org/2000/svg">
<path d="M69.2894 66.3019C72.9797 65.9198 75.7793 62.7386 75.6519 58.9206C75.525 55.1031 72.3433 52.0488 68.5258 52.0488H68.2715C64.3262 52.1761 61.2723 55.4847 61.3996 59.4296C61.5269 61.3386 62.2902 62.9929 63.4355 64.1382C59.109 72.6648 52.4918 78.9003 42.566 84.1179C35.8215 87.6811 28.8226 88.9538 21.8238 88.0632C16.0973 87.2995 11.6434 84.7546 8.84335 80.5546C4.77148 74.3191 4.38984 67.5741 7.82578 60.8296C10.2437 55.9937 14.0609 52.4304 16.4789 50.6488C15.9699 48.9945 15.2062 46.1949 14.8246 44.1589C-3.62735 57.521 -1.71836 75.5917 3.88085 84.1179C8.08007 90.4811 16.6062 94.4261 26.023 94.4261C28.568 94.4261 31.1129 94.1714 33.6582 93.5354C49.9469 90.3538 62.2906 80.6819 69.2894 66.3019ZM91.6863 50.5218C82.0148 39.1957 67.7625 32.9601 51.4738 32.9601H49.4379C48.2926 30.6695 45.8746 29.1422 43.2023 29.1422H42.9476C39.0031 29.2695 35.9492 32.5781 36.0762 36.5234C36.2035 40.341 39.3848 43.3953 43.2023 43.3953H43.4566C46.2562 43.2679 48.6742 41.4863 49.6922 39.0683H51.9828C61.6543 39.0683 70.8164 41.8679 79.0883 47.3402C85.4508 51.5398 90.032 57.012 92.5769 63.6292C94.7402 68.9741 94.6129 74.1917 92.3222 78.646C88.7594 85.3905 82.7785 89.0811 74.8887 89.0811C69.7984 89.0811 64.9629 87.5538 62.4176 86.4085C61.018 87.6811 58.4726 89.7171 56.691 90.9901C62.1633 93.535 67.7625 94.935 73.107 94.935C85.3234 94.935 94.3586 88.1901 97.7945 81.4456C101.485 74.0644 101.23 61.3386 91.6863 50.5218ZM27.041 68.4648C27.1683 72.2827 30.3496 75.3366 34.1672 75.3366H34.4219C38.3668 75.2097 41.4207 71.9007 41.2933 67.9558C41.1664 64.1378 37.9848 61.0839 34.1672 61.0839H33.9129C33.6582 61.0839 33.2762 61.0839 33.0223 61.2109C27.8047 52.5574 25.6414 43.1406 26.4051 32.9597C26.9137 25.3242 29.459 18.7066 33.9129 13.2344C37.6031 8.52577 44.7293 6.23515 49.5652 6.1082C63.0539 5.85351 68.7801 22.6515 69.1621 29.3964C70.8164 29.7781 73.616 30.6691 75.525 31.3054C73.9976 10.6898 61.2723 0 49.0562 0C37.6031 0 27.041 8.27186 22.8414 20.4886C16.9879 36.7777 20.8055 52.4304 27.9316 64.7745C27.2957 65.6652 26.9137 67.0651 27.041 68.4651V68.4648Z" fill="#764ABC"/>
</svg>
