<svg width="22" height="21" viewBox="0 0 22 21" fill="none" xmlns="http://www.w3.org/2000/svg">
<path d="M10.0853 1.21285C10.3851 0.292575 11.687 0.292576 11.9869 1.21285L13.738 6.58725C13.8721 6.99888 14.2559 7.27746 14.6888 7.27746H20.3495C21.3189 7.27746 21.7213 8.51849 20.9363 9.08725L16.3614 12.4019C16.0099 12.6565 15.8629 13.1088 15.9973 13.5215L17.7459 18.8881C18.0459 19.8089 16.9926 20.5759 16.2084 20.0077L11.6228 16.6853C11.2728 16.4317 10.7994 16.4317 10.4494 16.6853L5.86382 20.0077C5.07956 20.5759 4.02627 19.8089 4.3263 18.8881L6.07487 13.5215C6.20932 13.1088 6.06224 12.6565 5.71078 12.4019L1.13591 9.08725C0.350903 8.51849 0.753233 7.27746 1.72263 7.27746H7.38338C7.81631 7.27746 8.20007 6.99888 8.33419 6.58725L10.0853 1.21285Z" fill="#120D0E"/>
</svg>
