<svg width="21" height="21" viewBox="0 0 21 21" fill="none" xmlns="http://www.w3.org/2000/svg">
<path d="M9.37654 1.21285C9.67639 0.292575 10.9783 0.292576 11.2782 1.21285L13.0292 6.58725C13.1634 6.99888 13.5471 7.27746 13.98 7.27746H19.6408C20.6102 7.27746 21.0125 8.51849 20.2275 9.08725L15.6526 12.4019C15.3012 12.6565 15.1541 13.1088 15.2886 13.5215L17.0371 18.8881C17.3372 19.8089 16.2839 20.5759 15.4996 20.0077L10.9141 16.6853C10.564 16.4317 10.0907 16.4317 9.74063 16.6853L5.15508 20.0077C4.37082 20.5759 3.31753 19.8089 3.61756 18.8881L5.36613 13.5215C5.50058 13.1088 5.3535 12.6565 5.00204 12.4019L0.427169 9.08725C-0.357838 8.51849 0.044493 7.27746 1.01389 7.27746H6.67464C7.10757 7.27746 7.49133 6.99888 7.62545 6.58725L9.37654 1.21285Z" fill="#BEBEBE"/>
</svg>
